<svg width="44" height="53" viewBox="0 0 44 53" fill="none" xmlns="http://www.w3.org/2000/svg">
<path d="M21.9478 52.0186L7.2666 34.0912L12.114 26.1478H31.8609L36.5562 33.9455L21.9544 52.0186H21.9478ZM8.88021 33.9786L21.9412 49.9184L34.936 33.8329L31.107 27.4728H12.8481L8.88021 33.9786Z" fill="white"/>
<path d="M35.7428 33.3757H8.07339V34.7007H35.7428V33.3757Z" fill="white"/>
<path d="M26.6894 34.7008C26.4712 34.7008 26.2595 34.5881 26.1405 34.4026L21.9213 28.0293L17.9072 34.3894C17.7881 34.5815 17.5831 34.6941 17.3583 34.7008C17.1466 34.7008 16.9218 34.5948 16.8028 34.4093L11.9355 27.188C11.7305 26.8832 11.8098 26.4725 12.114 26.2671C12.4182 26.0617 12.8283 26.1412 13.0333 26.446L17.3318 32.8325L21.3526 26.4658C21.4716 26.2737 21.6833 26.1611 21.9015 26.1545H21.9081C22.1263 26.1545 22.338 26.2671 22.457 26.4526L26.6894 32.8457L30.9284 26.4526C31.1334 26.1478 31.5434 26.0683 31.8476 26.2671C32.1519 26.4725 32.2312 26.8832 32.0328 27.188L27.2383 34.4159C27.1126 34.6014 26.9076 34.714 26.6894 34.714V34.7008Z" fill="white"/>
<path d="M21.9412 51.6344C21.6436 51.6344 21.3856 51.4356 21.3063 51.1441L16.7035 34.2105C16.6043 33.8594 16.816 33.495 17.1665 33.3956C17.517 33.2963 17.8807 33.5083 17.9799 33.8594L21.9544 48.4808L26.0545 33.8528C26.1537 33.5016 26.5174 33.2963 26.8679 33.3956C27.2184 33.495 27.4234 33.8594 27.3242 34.2105L22.5826 51.1441C22.5033 51.429 22.2453 51.6277 21.9478 51.6277L21.9412 51.6344Z" fill="white"/>
<path d="M1.06365 18.8272C0.977681 18.8272 0.89832 18.814 0.812349 18.7742C0.475079 18.6351 0.316358 18.2509 0.455234 17.913C4.18504 8.81681 12.7292 2.97353 22.1926 3.0729C31.2262 3.1524 39.5323 8.95593 43.3547 17.8467C43.5002 18.1846 43.3414 18.5755 43.0108 18.7146C42.6735 18.8604 42.2833 18.7014 42.1445 18.3701C38.5271 9.95631 30.6905 4.47079 22.1794 4.39791C22.1133 4.39791 22.0471 4.39791 21.9876 4.39791C13.1326 4.39791 5.17702 9.88344 1.67867 18.4165C1.57286 18.6749 1.32818 18.8272 1.06365 18.8272Z" fill="white"/>
<path d="M1.06347 18.8272C0.89153 18.8272 0.719587 18.761 0.587325 18.6285C0.329412 18.3635 0.336018 17.9461 0.600544 17.6944C1.91656 16.4025 4.83295 15.5743 8.04033 15.5743H8.10646C11.2609 15.5876 14.0649 16.376 15.4074 17.6281C15.6719 17.8799 15.6917 18.2972 15.4404 18.5622C15.1891 18.8272 14.7725 18.8471 14.508 18.5954C13.43 17.5884 10.8509 16.906 8.09984 16.8927H8.04033C5.20329 16.8927 2.59109 17.5884 1.52638 18.6351C1.40073 18.761 1.2288 18.8206 1.06347 18.8206V18.8272Z" fill="white"/>
<path d="M14.9577 18.8272C14.7857 18.8272 14.6138 18.761 14.4815 18.6285C14.2236 18.3635 14.2302 17.9461 14.4948 17.6944C15.8108 16.4025 18.7272 15.5743 21.9345 15.5743H22.0007C25.1551 15.5876 27.9591 16.376 29.3016 17.6281C29.5661 17.8799 29.5859 18.2972 29.3346 18.5622C29.0833 18.8272 28.6667 18.8471 28.4022 18.5954C27.3242 17.5884 24.7517 16.906 21.9941 16.8927C19.1239 16.8927 16.4919 17.5817 15.4206 18.6351C15.2949 18.761 15.123 18.8206 14.9577 18.8206V18.8272Z" fill="white"/>
<path d="M28.8585 18.8272C28.6866 18.8272 28.5146 18.761 28.3824 18.6285C28.1244 18.3635 28.131 17.9461 28.3956 17.6944C29.7116 16.4025 32.628 15.5743 35.8354 15.5743H35.9015C39.056 15.5876 41.8599 16.376 43.2024 17.6281C43.4669 17.8799 43.4868 18.2972 43.2355 18.5622C42.9842 18.8272 42.5675 18.8471 42.303 18.5954C41.2251 17.5884 38.6525 16.906 35.8949 16.8927H35.8354C32.9983 16.8927 30.3861 17.5884 29.3214 18.6351C29.1958 18.761 29.0238 18.8206 28.8585 18.8206V18.8272Z" fill="white"/>
<path d="M22.1859 4.39787C21.8221 4.39787 21.5245 4.09974 21.5245 3.73536V0.793851C21.5245 0.429474 21.8221 0.131348 22.1859 0.131348C22.5496 0.131348 22.8472 0.429474 22.8472 0.793851V3.73536C22.8472 4.09974 22.5496 4.39787 22.1859 4.39787Z" fill="white"/>
<path d="M22.1859 23.7496C21.8221 23.7496 21.5245 23.4515 21.5245 23.0871V16.2368C21.5245 15.8725 21.8221 15.5743 22.1859 15.5743C22.5496 15.5743 22.8472 15.8725 22.8472 16.2368V23.0871C22.8472 23.4515 22.5496 23.7496 22.1859 23.7496Z" fill="white"/>
<path d="M30.0356 16.3163C29.7513 16.3163 29.4868 16.1308 29.4008 15.8459C28.5874 13.0965 27.3242 10.5525 25.6511 8.28011C24.4541 6.65035 22.5562 4.95434 21.7428 4.23222C21.4716 3.98709 21.4452 3.56971 21.6899 3.29809C21.9345 3.02646 22.3512 2.99996 22.6223 3.24509C23.9317 4.41772 25.5784 5.95473 26.7092 7.49836C28.4749 9.89662 29.8042 12.5798 30.6639 15.4683C30.7697 15.8194 30.5713 16.1904 30.2208 16.2898C30.1547 16.3097 30.0951 16.3163 30.029 16.3163H30.0356Z" fill="white"/>
<path d="M14.0583 16.3163C13.9988 16.3163 13.9327 16.3097 13.8665 16.2898C13.516 16.1838 13.3176 15.8194 13.4234 15.4683C14.2832 12.5731 15.6124 9.88999 17.3781 7.49836C18.5156 5.95473 20.1622 4.41772 21.465 3.24509C21.7362 2.99996 22.1528 3.02646 22.3975 3.29809C22.6422 3.56971 22.6157 3.98709 22.3446 4.23222C21.5378 4.95434 19.6398 6.65035 18.4362 8.28011C16.7631 10.5525 15.5 13.0965 14.6866 15.8459C14.6006 16.1308 14.3361 16.3163 14.0517 16.3163H14.0583Z" fill="white"/>
<path d="M8.93311 27.5457C8.76117 27.5457 8.59584 27.4795 8.46358 27.3536L6.35399 25.2402C6.09607 24.9818 6.09607 24.5645 6.35399 24.3061C6.6119 24.0477 7.02853 24.0477 7.28644 24.3061L9.39604 26.4195C9.65395 26.6779 9.65395 27.0952 9.39604 27.3536C9.26377 27.4861 9.09843 27.5457 8.92649 27.5457H8.93311Z" fill="white"/>
<path d="M35.4452 27.5457C35.2732 27.5457 35.1079 27.4795 34.9757 27.3536C34.7177 27.0952 34.7177 26.6779 34.9757 26.4195L37.0853 24.3061C37.3432 24.0477 37.7598 24.0477 38.0177 24.3061C38.2756 24.5645 38.2756 24.9818 38.0177 25.2402L35.9081 27.3536C35.7759 27.4861 35.6105 27.5457 35.4386 27.5457H35.4452Z" fill="white"/>
</svg>
