<svg width="39" height="38" viewBox="0 0 39 38" fill="none" xmlns="http://www.w3.org/2000/svg">
<path d="M14.2304 31.3079C12.921 31.3079 11.7438 31.2682 11.6711 31.2682L11.7174 29.9432C11.7174 29.9432 14.4288 30.0359 16.1746 29.9432C18.0991 29.8438 19.7854 29.6848 20.9956 28.7043C21.604 28.214 21.7363 27.5184 21.5908 27.048C21.5247 26.836 21.3395 26.465 20.8369 26.4186C18.3107 26.1801 15.4472 25.8953 13.0201 25.6435C10.408 25.3785 7.94787 25.1268 7.63044 25.1268C7.2072 25.1466 3.91387 25.9748 0.984247 26.7631L0.64035 25.4845C2.10847 25.087 6.94929 23.8018 7.63044 23.8018C7.99417 23.8018 9.7731 23.9806 13.1524 24.3251C15.5728 24.5703 18.4297 24.8618 20.9559 25.1003C21.8751 25.1864 22.5827 25.7694 22.8539 26.6638C23.1779 27.737 22.7613 28.9759 21.8222 29.7378C20.1756 31.0628 17.9007 31.182 16.2341 31.2682C15.6191 31.3013 14.9049 31.3079 14.2237 31.3079H14.2304Z" fill="white"/>
<path d="M15.0967 37.6812C14.4751 37.6812 13.6418 37.6348 12.5506 37.5089C10.4807 37.2638 8.74807 36.8199 7.3527 36.4622C5.93748 36.0978 4.81326 35.8063 3.90726 35.8527C2.0159 35.9388 0.971035 36.1574 0.964422 36.1641L0.686661 34.8655C0.732953 34.8523 1.83735 34.6204 3.84774 34.5277C4.95214 34.4813 6.15572 34.786 7.68335 35.1769C9.11179 35.5413 10.7254 35.9587 12.7093 36.1906C15.5265 36.5284 16.3267 36.2436 16.3334 36.2369C16.5119 36.1641 33.1043 29.4463 35.2998 28.2339C36.2389 27.7172 36.8142 27.1739 36.9597 26.6638C37.0391 26.3855 36.9928 26.1006 36.8142 25.7826C36.4836 25.1864 35.1147 25.2394 34.5063 25.3586L22.3447 28.8898L21.9744 27.6178L34.1954 24.0734C34.5393 24.0005 37.0788 23.5566 37.9649 25.1334C38.322 25.7628 38.408 26.3988 38.2294 27.0281C37.9781 27.9093 37.2309 28.6844 35.9347 29.3999C33.6664 30.652 17.5237 37.1843 16.8426 37.4626C16.7301 37.5222 16.2804 37.6812 15.1033 37.6812H15.0967Z" fill="white"/>
<path d="M19.1373 22.3244L18.8728 22.2051L19.1175 21.589L18.8529 22.1985L18.7339 22.1455C18.4033 21.9997 10.5931 18.5812 10.5931 12.3669V4.01939L11.4793 3.86702C11.7769 3.81402 12.0745 3.75438 12.3655 3.68813C12.7821 3.59538 13.1987 3.50263 13.6153 3.39663C14.0849 3.27738 14.561 3.14488 15.0239 3.00576C15.5398 2.84676 15.9828 2.68777 16.3862 2.52214C16.8359 2.33664 17.1864 2.16438 17.4774 1.97225C17.6758 1.84638 17.9205 1.67414 18.066 1.46876C18.0858 1.44226 18.0991 1.40914 18.1123 1.38264C18.2181 1.18388 18.4628 0.726751 19.0646 0.713501C19.468 0.693626 19.878 0.945379 20.0631 1.31638L20.1028 1.40251C20.1028 1.40251 20.1227 1.44226 20.1359 1.46213C20.1822 1.53501 20.2417 1.60788 20.3277 1.68738C20.5856 1.92588 20.9096 2.10475 21.1675 2.23725C21.5247 2.41613 21.9148 2.58839 22.4108 2.76726C22.8407 2.91964 23.3036 3.06539 23.8194 3.21776C24.2691 3.34364 24.7254 3.46289 25.1883 3.56889C25.5587 3.65501 25.929 3.73451 26.3059 3.81401C26.5242 3.86039 26.749 3.90014 26.9739 3.93989L27.6286 4.04589V12.3934C27.6286 18.6077 19.8185 22.0329 19.4878 22.172L19.1307 22.3244H19.1373ZM11.9224 5.13241V12.3669C11.9224 17.3225 18.1784 20.4296 19.1373 20.8735C20.2285 20.3633 26.3126 17.2695 26.3126 12.3868V5.15228C26.2266 5.13903 26.1406 5.11914 26.0547 5.09927C25.6645 5.01977 25.2809 4.94027 24.8974 4.84751C24.4212 4.73489 23.9451 4.61565 23.4755 4.48315C22.9266 4.33077 22.4307 4.17177 21.9743 4.00614C21.4255 3.80739 20.9824 3.62189 20.579 3.40989C20.2483 3.23764 19.8185 2.99913 19.4481 2.65463C19.3159 2.53538 19.2101 2.40951 19.1175 2.28363C18.8463 2.65463 18.4892 2.90638 18.1983 3.08525C17.8345 3.31713 17.4245 3.52252 16.9021 3.74115C16.4656 3.92002 15.9828 4.09226 15.4273 4.26451C14.938 4.41688 14.4486 4.55603 13.9526 4.67528C13.5228 4.78128 13.0929 4.88727 12.6564 4.98002C12.4117 5.03302 12.1671 5.0794 11.929 5.12577L11.9224 5.13241Z" fill="white"/>
</svg>
