<svg width="43" height="41" viewBox="0 0 43 41" fill="none" xmlns="http://www.w3.org/2000/svg">
<path d="M21.2651 36.4742C21.1527 36.4742 21.0403 36.4477 20.9345 36.388L7.43045 28.65C7.22544 28.5308 7.09979 28.3121 7.09979 28.0736V12.5975C7.09979 12.3657 7.22545 12.147 7.42384 12.0278C7.62885 11.9085 7.87353 11.9085 8.07853 12.0212L21.5826 19.5538C21.7942 19.6731 21.9198 19.8917 21.9198 20.1302V35.8117C21.9198 36.0502 21.7942 36.2688 21.5892 36.388C21.4834 36.4477 21.3709 36.4742 21.2585 36.4742H21.2651ZM8.42242 27.6894L20.6038 34.6722V20.5277L8.42242 13.7304V27.696V27.6894Z" fill="white"/>
<path d="M21.2651 36.4742C21.1527 36.4742 21.0337 36.4477 20.9345 36.3814C20.7295 36.2622 20.6038 36.0435 20.6038 35.8117V20.1302C20.6038 19.8917 20.7361 19.6664 20.9411 19.5538L34.4451 12.0212C34.6501 11.9085 34.9014 11.9085 35.0998 12.0278C35.3048 12.147 35.4239 12.3657 35.4239 12.5975V28.0736C35.4239 28.3121 35.2982 28.5308 35.0932 28.65L21.5892 36.388C21.49 36.4477 21.3709 36.4742 21.2585 36.4742H21.2651ZM21.9264 20.5211V34.6655L34.1079 27.6827V13.7172L21.9264 20.5144V20.5211Z" fill="white"/>
<path d="M7.7611 13.2601C7.52964 13.2601 7.31141 13.1408 7.18576 12.9288C7.00721 12.6108 7.11301 12.2067 7.43044 12.0278L20.9345 4.28976C21.1395 4.1705 21.3908 4.1705 21.5892 4.28976L35.0932 12.0278C35.4106 12.2067 35.5231 12.6174 35.3379 12.9288C35.1593 13.2468 34.7493 13.3594 34.4385 13.1739L21.2585 5.62139L8.07853 13.1739C7.97272 13.2336 7.86029 13.2601 7.74787 13.2601H7.7611Z" fill="white"/>
<path d="M1.06198 8.65568C0.698257 8.65568 0.400665 8.35755 0.400665 7.99318V0.745389C0.400665 0.381012 0.698257 0.0828857 1.06198 0.0828857H8.05207C8.4158 0.0828857 8.71339 0.381012 8.71339 0.745389C8.71339 1.10977 8.4158 1.40789 8.05207 1.40789H1.72329V7.99318C1.72329 8.35755 1.4257 8.65568 1.06198 8.65568Z" fill="white"/>
<path d="M8.1711 40.5883H0.936338C0.572616 40.5883 0.275024 40.2902 0.275024 39.9258V32.9231C0.275024 32.5587 0.572616 32.2606 0.936338 32.2606C1.30006 32.2606 1.59765 32.5587 1.59765 32.9231V39.2633H8.1711C8.53483 39.2633 8.83242 39.5614 8.83242 39.9258C8.83242 40.2902 8.53483 40.5883 8.1711 40.5883Z" fill="white"/>
<path d="M41.4749 8.65568C41.1112 8.65568 40.8136 8.35755 40.8136 7.99318V1.40789H34.4848C34.1211 1.40789 33.8235 1.10977 33.8235 0.745389C33.8235 0.381012 34.1211 0.0828857 34.4848 0.0828857H41.4749C41.8386 0.0828857 42.1362 0.381012 42.1362 0.745389V7.99318C42.1362 8.35755 41.8386 8.65568 41.4749 8.65568Z" fill="white"/>
<path d="M41.5939 40.5883H34.3591C33.9954 40.5883 33.6978 40.2902 33.6978 39.9258C33.6978 39.5614 33.9954 39.2633 34.3591 39.2633H40.9326V32.9231C40.9326 32.5587 41.2302 32.2606 41.5939 32.2606C41.9576 32.2606 42.2552 32.5587 42.2552 32.9231V39.9258C42.2552 40.2902 41.9576 40.5883 41.5939 40.5883Z" fill="white"/>
</svg>
