<svg width="174" height="175" viewBox="0 0 174 175" fill="none" xmlns="http://www.w3.org/2000/svg">
<path style="mix-blend-mode:screen" d="M87.0016 174.492C135.051 174.492 174.003 135.43 174.003 87.2458C174.003 39.0613 135.051 0 87.0016 0C38.952 0 0 39.0613 0 87.2458C0 135.43 38.952 174.492 87.0016 174.492Z" fill="url(#paint0_linear_52_2)"/>
<path style="mix-blend-mode:screen" d="M87.0016 174.492C135.051 174.492 174.003 135.43 174.003 87.2458C174.003 39.0613 135.051 0 87.0016 0C38.952 0 0 39.0613 0 87.2458C0 135.43 38.952 174.492 87.0016 174.492Z" fill="url(#paint1_linear_52_2)"/>
<path style="mix-blend-mode:screen" d="M87.0016 174.492C135.051 174.492 174.003 135.43 174.003 87.2458C174.003 39.0613 135.051 0 87.0016 0C38.952 0 0 39.0613 0 87.2458C0 135.43 38.952 174.492 87.0016 174.492Z" fill="url(#paint2_linear_52_2)"/>
<defs>
<linearGradient id="paint0_linear_52_2" x1="87.0016" y1="0" x2="87.0016" y2="174.492" gradientUnits="userSpaceOnUse">
<stop stop-color="#8D46D1" stop-opacity="0.2"/>
<stop offset="1" stop-color="#8D46D1"/>
</linearGradient>
<linearGradient id="paint1_linear_52_2" x1="87.0016" y1="0" x2="87.0016" y2="174.492" gradientUnits="userSpaceOnUse">
<stop stop-color="#8D46D1" stop-opacity="0.2"/>
<stop offset="1" stop-color="#8D46D1"/>
</linearGradient>
<linearGradient id="paint2_linear_52_2" x1="87.0016" y1="0" x2="87.0016" y2="174.492" gradientUnits="userSpaceOnUse">
<stop stop-color="#8D46D1" stop-opacity="0.2"/>
<stop offset="1" stop-color="#8D46D1"/>
</linearGradient>
</defs>
</svg>
