<svg width="61" height="57" viewBox="0 0 61 57" fill="none" xmlns="http://www.w3.org/2000/svg">
<path d="M39.6798 23.24C39.6798 24.25 39.7398 25.13 39.6498 26C39.6098 26.39 39.3598 26.95 39.0598 27.07C38.7598 27.19 38.1798 26.96 37.8898 26.7C36.8798 25.78 35.9698 24.75 34.9498 23.83C34.6098 23.52 34.0598 23.29 33.5998 23.27C31.5498 23.19 30.7898 22.46 30.7798 20.39C30.7798 19.54 30.7798 18.7 30.7798 17.77H17.6998C17.6998 18.6 17.7598 19.47 17.6698 20.33C17.6298 20.75 17.3998 21.38 17.0898 21.5C16.7698 21.62 16.1898 21.32 15.8598 21.05C15.1798 20.49 14.5698 19.85 13.9798 19.2C13.1298 18.28 12.3098 17.5 10.8498 17.64C9.76982 17.74 8.85982 16.66 8.84982 15.5C8.80982 11.29 8.80982 7.09001 8.84982 2.88001C8.85982 1.51001 9.80982 0.66001 11.1998 0.65001C19.3498 0.63001 27.5098 0.63001 35.6598 0.65001C37.0898 0.65001 37.9198 1.56001 37.9798 3.01001C37.9998 3.53001 37.9798 4.05001 37.9798 4.58001C37.9798 5.07001 37.9798 5.55001 37.9798 6.20001C38.3998 6.20001 38.7798 6.20001 39.1498 6.20001C45.0498 6.20001 50.9598 6.20001 56.8598 6.20001C59.1898 6.20001 59.9298 6.93001 59.9298 9.22001C59.9298 13 59.9298 16.79 59.9298 20.57C59.9298 22.45 59.1298 23.24 57.2498 23.25C51.8398 23.25 46.4198 23.25 41.0098 23.25C40.6198 23.25 40.2398 23.25 39.6798 23.25V23.24ZM15.5998 18.46C15.6998 18.4 15.7898 18.34 15.8898 18.28C15.8898 18.12 15.8898 17.96 15.8898 17.8C15.8898 15.99 15.9798 15.9 17.7298 15.9C23.5298 15.9 29.3298 15.89 35.1398 15.91C35.9298 15.91 36.2298 15.69 36.2198 14.86C36.1798 11.08 36.1798 7.3 36.2198 3.52C36.2198 2.65 35.9498 2.41001 35.0998 2.42001C31.1898 2.46001 27.2798 2.44001 23.3698 2.44001C19.4598 2.44001 15.5498 2.44001 11.6398 2.44001C11.0898 2.44001 10.6798 2.48001 10.6798 3.20001C10.6898 7.18001 10.6898 11.15 10.6798 15.13C10.6798 15.72 10.9398 16.01 11.5098 15.91C12.9598 15.65 13.9298 16.38 14.7598 17.43C15.0398 17.78 15.3198 18.13 15.6098 18.48L15.5998 18.46ZM37.8398 24.06C37.8398 23.68 37.8398 23.52 37.8398 23.36C37.8298 21.56 37.9498 21.44 39.7798 21.44C45.5498 21.44 51.3198 21.43 57.0898 21.45C57.8798 21.45 58.1698 21.24 58.1598 20.41C58.1198 16.66 58.1098 12.91 58.1598 9.16001C58.1698 8.22001 57.8398 8.01 56.9698 8.02C50.9698 8.05 44.9698 8.03001 38.9698 8.04001C38.6598 8.04001 38.3498 8.08001 37.9898 8.11001C37.9898 10.49 37.9898 12.76 37.9898 15.04C37.9898 16.83 37.1298 17.69 35.3598 17.7C34.4598 17.7 33.5698 17.7 32.6198 17.7C32.6198 18.61 32.6198 19.36 32.6198 20.11C32.6198 21.47 32.6398 21.54 33.9598 21.45C34.8398 21.39 35.4598 21.7 36.0298 22.3C36.5598 22.86 37.1298 23.38 37.8298 24.08L37.8398 24.06Z" fill="white" stroke="#020202" stroke-width="0.3" stroke-miterlimit="10"/>
<path d="M13.2799 24.1701C20.8699 24.1801 26.7799 30.0201 26.7399 37.4901C26.7099 44.7101 20.5799 50.7401 13.3199 50.7101C6.06992 50.6701 0.149902 44.7001 0.149902 37.4201C0.149902 30.0101 5.93991 24.1601 13.2699 24.1701H13.2799ZM21.5499 44.8101C25.8599 41.0001 25.4499 33.5401 20.9099 29.1901C16.3799 24.8501 9.02991 25.3001 5.04991 30.1601C1.36991 34.6501 1.45991 42.1201 5.34991 44.7901C5.00991 41.4801 6.00991 39.0301 9.48991 38.1501C8.57991 36.0201 8.51991 34.0801 10.4399 32.5201C11.9499 31.3001 14.2699 31.0201 15.7999 32.0201C18.1099 33.5401 18.3199 35.7301 17.4299 38.1801C20.8699 39.0301 21.7499 41.4901 21.5399 44.8001L21.5499 44.8101ZM13.4799 40.3201C12.4299 40.3201 11.3799 40.2901 10.3299 40.3201C8.51991 40.3801 7.52991 41.3701 7.46991 43.1701C7.43991 44.1001 7.37991 45.0501 7.49991 45.9601C7.54991 46.4001 7.87991 46.9901 8.24991 47.1801C11.0799 48.6401 14.0299 48.8901 17.0399 47.8201C19.3699 46.9901 19.3599 46.9701 19.3599 44.5601C19.3599 44.0901 19.3599 43.6301 19.3599 43.1601C19.3099 41.4101 18.3699 40.4101 16.6299 40.3301C15.5799 40.2801 14.5299 40.3301 13.4799 40.3201ZM11.0999 35.8101C11.0899 37.1701 12.0799 38.1501 13.4499 38.1301C14.7399 38.1201 15.7599 37.1301 15.7799 35.8701C15.7999 34.5601 14.7699 33.4901 13.4599 33.4701C12.1399 33.4501 11.0999 34.4701 11.0899 35.8001L11.0999 35.8101Z" fill="white" stroke="#020202" stroke-width="0.3" stroke-miterlimit="10"/>
<path d="M58.1299 43.08C58.1099 50.39 52.1499 56.3 44.7799 56.32C37.5299 56.34 31.6399 50.49 31.6799 43.32C31.7199 35.73 37.4899 29.74 44.7699 29.73C52.1699 29.73 58.1499 35.71 58.1299 43.08ZM53.0199 50.46C57.2099 46.87 56.9699 39.5 52.7099 35.14C48.2899 30.62 40.9799 30.76 36.8199 35.45C32.8599 39.91 32.7999 47.37 36.8499 50.49C36.4899 47.13 37.4999 44.65 40.9399 43.77C40.0199 40.99 40.3199 39.37 41.9599 38.11C43.5699 36.87 45.9899 36.71 47.5399 37.75C49.2799 38.91 49.7699 40.96 48.9499 43.79C52.3599 44.64 53.3199 47.13 53.0299 50.46H53.0199ZM44.9299 45.96C43.8799 45.96 42.8299 45.93 41.7799 45.96C40.0699 46.01 39.0399 47.03 38.9699 48.74C38.9299 49.59 39.0399 50.46 38.9399 51.3C38.8199 52.26 39.2799 52.68 40.0699 53.04C43.1999 54.46 46.3199 54.37 49.4599 53.12C50.4599 52.72 51.0499 52.16 50.8799 50.96C50.7699 50.2 50.8799 49.41 50.8499 48.63C50.7899 47.05 49.7899 46.03 48.1999 45.96C47.1099 45.91 46.0199 45.96 44.9299 45.96ZM44.8899 43.72C46.1699 43.74 47.2299 42.76 47.2799 41.51C47.3299 40.26 46.2299 39.09 44.9599 39.07C43.7299 39.05 42.6399 40.09 42.5999 41.32C42.5599 42.66 43.5499 43.7 44.8899 43.72Z" fill="white" stroke="#020202" stroke-width="0.3" stroke-miterlimit="10"/>
<path d="M23.3899 13.41C20.6199 13.41 17.8499 13.41 15.0799 13.41C14.4099 13.41 13.7399 13.34 13.7499 12.51C13.7599 11.7 14.4299 11.61 15.0999 11.61C20.6699 11.61 26.2399 11.61 31.8099 11.61C32.4499 11.61 33.0499 11.7 33.0799 12.48C33.1099 13.34 32.4599 13.41 31.7899 13.41C28.9899 13.41 26.1899 13.41 23.3799 13.41H23.3899Z" fill="white" stroke="#020202" stroke-width="0.3" stroke-miterlimit="10"/>
<path d="M23.46 10.05C20.72 10.05 17.99 10.05 15.25 10.05C14.99 10.05 14.66 10.13 14.49 9.99999C14.19 9.76999 13.82 9.42999 13.79 9.09999C13.77 8.84999 14.18 8.49998 14.48 8.30998C14.67 8.18998 14.99 8.24999 15.25 8.24999C20.72 8.24999 26.19 8.24999 31.67 8.24999C31.8 8.24999 31.93 8.24999 32.06 8.24999C32.67 8.24999 33.1 8.48999 33.11 9.13999C33.11 9.78999 32.66 10.04 32.07 10.04C30.47 10.04 28.88 10.04 27.28 10.04C26.01 10.04 24.74 10.04 23.47 10.04L23.46 10.05Z" fill="white" stroke="#020202" stroke-width="0.3" stroke-miterlimit="10"/>
<path d="M23.41 4.90002C26.24 4.90002 29.08 4.90002 31.91 4.90002C32.56 4.90002 33.13 5.05002 33.09 5.85002C33.05 6.48002 32.59 6.71002 31.99 6.71002C26.29 6.71002 20.59 6.71002 14.89 6.71002C14.26 6.71002 13.75 6.47002 13.75 5.79002C13.75 5.07002 14.3 4.91003 14.91 4.91003C17.74 4.91003 20.58 4.91003 23.41 4.91003V4.90002Z" fill="white" stroke="#020202" stroke-width="0.3" stroke-miterlimit="10"/>
<path d="M48.1099 17.2C50.1999 17.2 52.2799 17.2 54.3699 17.2C54.6899 17.2 55.0599 17.15 55.3299 17.29C55.6099 17.43 55.9699 17.78 55.9599 18.03C55.9499 18.34 55.6499 18.71 55.3799 18.9C55.1399 19.06 54.7499 19.02 54.4299 19.02C50.1899 19.02 45.9499 19.02 41.7099 19.02C41.4799 19.02 41.1999 19.09 41.0399 18.98C40.6999 18.75 40.4299 18.42 40.1299 18.12C40.4399 17.81 40.7199 17.31 41.0799 17.24C41.8399 17.1 42.6399 17.18 43.4199 17.18C44.9899 17.18 46.5499 17.18 48.1199 17.18L48.1099 17.2Z" fill="white" stroke="#020202" stroke-width="0.3" stroke-miterlimit="10"/>
<path d="M47.9599 12.28C45.7799 12.28 43.5999 12.28 41.4199 12.28C40.7999 12.28 40.1699 12.21 40.1399 11.42C40.1099 10.57 40.7699 10.47 41.4299 10.47C45.8599 10.47 50.2799 10.47 54.7099 10.47C55.3299 10.47 55.9699 10.57 55.9899 11.34C56.0199 12.19 55.3599 12.28 54.6899 12.28C52.4399 12.28 50.1999 12.28 47.9499 12.28H47.9599Z" fill="white" stroke="#020202" stroke-width="0.3" stroke-miterlimit="10"/>
<path d="M48.0699 15.63C45.8599 15.63 43.6399 15.66 41.4299 15.61C41.0099 15.6 40.4399 15.37 40.2199 15.05C39.8199 14.48 40.4099 13.83 41.3199 13.82C43.4699 13.8 45.6199 13.82 47.7599 13.82C50.0699 13.82 52.3799 13.8 54.6899 13.84C55.0899 13.84 55.6199 14.05 55.8599 14.34C56.3199 14.91 55.7999 15.61 54.8999 15.62C52.6199 15.64 50.3399 15.62 48.0699 15.62V15.63Z" fill="white" stroke="#020202" stroke-width="0.3" stroke-miterlimit="10"/>
</svg>
