<svg width="49" height="50" viewBox="0 0 49 50" fill="none" xmlns="http://www.w3.org/2000/svg">
<path d="M17.25 11.9299C17.2 9.14989 17.16 6.53989 17.11 3.92989C17.1 3.27989 17.38 2.9199 18 2.7199C20.07 2.0699 22.12 1.37988 24.19 0.739885C24.46 0.659885 24.8 0.679904 25.07 0.759904C27.11 1.3999 29.13 2.06989 31.17 2.70989C31.78 2.89989 32.09 3.24989 32.08 3.89989C32.03 6.50989 31.99 9.1199 31.94 11.9099C32.51 12.0699 33.28 12.2999 34.07 12.5099C37.23 13.3499 40.4 14.1599 43.54 15.0499C44.05 15.1899 44.62 15.5699 44.89 16.0099C46.21 18.1499 47.44 20.3399 48.68 22.5199C49.25 23.5099 49.11 23.8399 48.02 24.1499C47.26 24.3699 46.5 24.6199 45.72 24.7499C44.92 24.8899 44.72 25.2899 44.73 26.0799C44.77 31.5199 44.71 36.9699 44.78 42.4099C44.79 43.5699 44.39 44.0299 43.3 44.3199C37.34 45.8699 31.4 47.4899 25.44 49.0599C24.94 49.1899 24.34 49.2199 23.84 49.0799C17.75 47.4799 11.68 45.8099 5.58002 44.2199C4.65002 43.9799 4.40001 43.5199 4.41001 42.6199C4.44001 37.1399 4.41001 31.6699 4.45001 26.1899C4.45001 25.2599 4.20001 24.8299 3.26001 24.6999C2.48001 24.5899 1.73002 24.3099 0.970015 24.0999C0.180015 23.8799 -0.00998679 23.4099 0.390013 22.6999C1.71001 20.3999 3.02002 18.0999 4.40002 15.8299C4.63002 15.4499 5.17001 15.1599 5.63001 15.0299C9.21001 14.0399 12.81 13.0999 16.4 12.1399C16.73 12.0499 17.05 11.9499 17.25 11.8899V11.9299ZM6.10001 25.5099C6.05001 25.7399 6.00001 25.8599 6.00001 25.9899C6.00001 31.3599 6.00001 36.7299 5.98001 42.1099C5.98001 42.7099 6.28001 42.8399 6.77001 42.9699C9.83001 43.7699 12.89 44.5999 15.95 45.4099C18.54 46.0999 21.12 46.7799 23.74 47.4699V24.1999C22.83 25.7699 22.05 27.0599 21.33 28.3899C20.92 29.1399 20.46 29.3899 19.58 29.1399C17.11 28.4099 14.6 27.7799 12.11 27.1099C10.12 26.5799 8.13001 26.0599 6.11001 25.5199L6.10001 25.5099ZM43.19 25.5099C42.67 25.6299 42.3 25.6999 41.94 25.7999C37.95 26.8699 33.97 27.9399 29.98 29.0199C28.9734 29.2932 28.2167 28.9866 27.71 28.0999C27 26.8799 26.29 25.6499 25.58 24.4299C25.52 24.4599 25.47 24.4899 25.41 24.5099V47.3799C25.57 47.3799 25.67 47.3999 25.77 47.3799C31.36 45.8999 36.94 44.3999 42.53 42.9399C43.17 42.7699 43.2 42.3899 43.2 41.8799C43.2 38.8199 43.2 35.7499 43.2 32.6899C43.2 30.3499 43.2 28.0199 43.2 25.5099H43.19ZM18.63 7.3499C18.63 7.3499 18.67 7.3499 18.69 7.3499C18.69 7.9999 18.67 8.65989 18.69 9.30989C18.81 12.9799 20.56 15.5599 23.94 16.9999C24.25 17.1299 24.7 17.1999 24.99 17.0799C27.86 15.9099 29.83 13.9499 30.29 10.7699C30.45 9.64988 30.46 8.5099 30.48 7.3799C30.5 6.3499 30.83 5.03988 30.34 4.35988C29.82 3.64988 28.44 3.60989 27.5 3.14989C25.55 2.19989 23.65 2.19991 21.69 3.13991C20.77 3.57991 19.37 3.55989 18.89 4.24989C18.37 4.97989 18.68 6.29988 18.63 7.35988V7.3499ZM23.4 21.6299C17.4 20.0199 11.53 18.4499 5.59001 16.8599C4.43001 18.8599 3.30001 20.7999 2.13001 22.8299C3.69001 23.2499 5.12001 23.6299 6.54001 24.0099C10.7 25.1199 14.85 26.2399 19.02 27.3199C19.37 27.4099 20.01 27.3699 20.15 27.1499C21.26 25.3799 22.28 23.5599 23.41 21.6299H23.4ZM43.59 16.8799C37.6 18.4799 31.74 20.0399 25.77 21.6299C26.83 23.4499 27.83 25.0899 28.74 26.7899C29.09 27.4399 29.43 27.5599 30.12 27.3599C33.57 26.3999 37.03 25.4899 40.49 24.5699C42.64 23.9999 44.8 23.4199 47.05 22.8299C45.87 20.7999 44.76 18.8699 43.6 16.8799H43.59ZM8.33002 15.9299C8.71002 16.0699 8.84001 16.1299 8.97001 16.1599C13.98 17.5099 19 18.8599 24.02 20.1799C24.45 20.2899 24.97 20.2299 25.42 20.1199C27.82 19.4999 30.2 18.8399 32.59 18.1999C35.27 17.4799 37.96 16.7599 40.64 16.0499C40.64 15.9899 40.64 15.9399 40.64 15.8799C37.5 15.0399 34.36 14.2099 31.21 13.3699C30.01 15.9999 28 17.5999 25.47 18.5599C24.95 18.7599 24.24 18.7699 23.73 18.5799C21.16 17.6199 19.13 15.9899 17.96 13.3699C14.79 14.2199 11.68 15.0499 8.33002 15.9399V15.9299Z" fill="white"/>
<path d="M9.62999 34.95C9.36999 35.08 9.19999 35.23 9.02999 35.23C8.74999 35.23 8.33999 35.22 8.20999 35.04C8.04999 34.82 7.98999 34.35 8.12999 34.13C8.60999 33.34 9.15999 32.59 9.73999 31.86C10.17 31.31 10.69 31.35 11.12 31.89C11.57 32.46 12.03 33.02 12.38 33.65C12.6 34.05 12.62 34.56 12.74 35.02C12.27 35.09 11.79 35.16 11.21 35.25C11.21 36.28 11.21 37.51 11.21 38.75C11.21 39.34 11.14 39.95 10.41 39.95C9.67999 39.95 9.61999 39.33 9.62999 38.75C9.62999 37.51 9.62999 36.28 9.62999 34.95Z" fill="white"/>
<path d="M41.2901 37.9898C41.2101 41.7698 41.8801 40.8699 38.3201 41.8899C36.2701 42.4799 34.2101 43.0098 32.1501 43.5498C31.1401 43.8098 30.8001 43.5698 30.7801 42.5298C30.7601 41.1198 30.7801 39.7098 30.7801 38.2998C30.7801 37.6598 31.0301 37.2898 31.6801 37.1198C34.4701 36.3898 37.2601 35.6298 40.0401 34.8798C40.8501 34.6598 41.3101 34.9198 41.3001 35.8298C41.2901 36.5498 41.3001 37.2698 41.3001 37.9998L41.2901 37.9898ZM39.7501 36.5699C37.3201 37.2199 35.0701 37.8098 32.8201 38.4298C32.6201 38.4798 32.3701 38.7798 32.3601 38.9698C32.3101 39.9098 32.3401 40.8499 32.3401 41.8899C34.7301 41.2599 36.9501 40.6798 39.1701 40.0598C39.4101 39.9898 39.7101 39.6398 39.7301 39.3998C39.8001 38.5198 39.7601 37.6199 39.7601 36.5699H39.7501Z" fill="white"/>
<path d="M23.4801 10.7299C24.5901 9.55992 25.5201 8.58991 26.4401 7.61991C26.8301 7.20991 27.2501 6.8999 27.7501 7.3999C28.2601 7.9099 27.9001 8.32991 27.5101 8.71991C26.4401 9.78991 25.3601 10.8499 24.3001 11.9299C23.7901 12.4499 23.3201 12.4999 22.8001 11.9499C22.3501 11.4799 21.8201 11.0699 21.4601 10.5399C21.2901 10.2899 21.4401 9.81992 21.4601 9.44992C21.8301 9.46992 22.2801 9.35991 22.5401 9.52991C22.8901 9.75991 23.1001 10.2099 23.4801 10.7299Z" fill="white"/>
</svg>
