<svg width="40" height="39" viewBox="0 0 40 39" fill="none" xmlns="http://www.w3.org/2000/svg">
<path d="M21.0501 31.7999V36.2999C21.2901 36.3099 21.5301 36.3299 21.7601 36.3299C23.2801 36.3299 24.8001 36.3299 26.3101 36.3299C27.1001 36.3299 27.5601 36.7099 27.5601 37.3199C27.5601 37.9299 27.1101 38.2999 26.3101 38.2999C22.1401 38.2999 17.9601 38.2999 13.7901 38.2999C12.9901 38.2999 12.5401 37.9199 12.5301 37.3099C12.5301 36.6899 12.9801 36.3299 13.7801 36.3299C15.5201 36.3299 17.2501 36.3299 19.0401 36.3299V31.8399C18.7901 31.8399 18.5401 31.8399 18.2801 31.8399C14.4601 31.8399 10.6401 31.7599 6.83011 31.8599C3.34011 31.9499 0.830128 29.2199 0.880128 25.8899C0.960128 19.2599 0.900127 12.6299 0.910127 5.99988C0.910127 2.45988 3.24011 0.109863 6.77011 0.109863C15.6801 0.109863 24.5901 0.109863 33.4901 0.109863C36.9801 0.109863 39.3301 2.46987 39.3301 5.95987C39.3301 12.6399 39.3301 19.3099 39.3301 25.9899C39.3301 29.4399 36.9701 31.7899 33.5101 31.7999C29.6301 31.8099 25.7401 31.7999 21.8601 31.7999C21.6201 31.7999 21.3701 31.7999 21.0501 31.7999ZM2.89014 24.3499H37.3001C37.3101 24.1999 37.3301 24.0899 37.3301 23.9799C37.3301 17.8699 37.3401 11.7499 37.3301 5.63989C37.3301 3.49989 35.7901 2.06989 33.5701 2.06989C24.6201 2.06989 15.6701 2.06989 6.73013 2.06989C4.34013 2.06989 2.89014 3.51987 2.89014 5.89987C2.89014 11.7899 2.89014 17.6799 2.89014 23.5699C2.89014 23.8099 2.89014 24.0599 2.89014 24.3499ZM37.2901 26.4499H2.89014C2.98014 26.8399 3.02014 27.1899 3.14014 27.5199C3.68014 29.0499 4.94013 29.8399 6.82013 29.8399C15.6801 29.8399 24.5401 29.8399 33.4001 29.8399C33.7101 29.8399 34.0301 29.8199 34.3301 29.7799C35.9701 29.5699 37.2801 28.1099 37.2901 26.4499Z" fill="white" stroke="#050505" stroke-width="0.2" stroke-miterlimit="10"/>
<path d="M26.9803 9.13998H25.0703C25.1303 8.55998 25.1902 8.03997 25.2502 7.46997H30.0602V12.16H28.3903V10.4C25.8103 12.6 23.3702 14.69 20.8702 16.83C19.9802 15.75 19.1302 14.71 18.2202 13.61C15.5902 15.79 12.9902 17.95 10.3602 20.14C9.99023 19.69 9.65023 19.28 9.24023 18.8C12.3002 16.26 15.3503 13.73 18.4503 11.16C19.3403 12.24 20.2003 13.29 21.1003 14.38C23.0903 12.67 25.0703 10.98 27.0403 9.28998C27.0203 9.23998 27.0003 9.18997 26.9803 9.12997V9.13998Z" fill="white" stroke="#050505" stroke-width="0.2" stroke-miterlimit="10"/>
</svg>
