<svg width="28" height="27" viewBox="0 0 28 27" fill="none" xmlns="http://www.w3.org/2000/svg">
<path d="M27.2543 26.8786H0.418335V0.374369C0.418335 0.193844 0.565623 0.0461426 0.745643 0.0461426C0.925662 0.0461426 1.07295 0.193844 1.07295 0.374369V26.2222H27.2543C27.4343 26.2222 27.5816 26.3699 27.5816 26.5504C27.5816 26.7309 27.4343 26.8786 27.2543 26.8786Z" fill="white"/>
<path d="M9.55022 20.2977H4.61442C4.4344 20.2977 4.28711 20.15 4.28711 19.9695V9.3054C4.28711 9.12487 4.4344 8.97717 4.61442 8.97717H9.55022C9.73024 8.97717 9.87752 9.12487 9.87752 9.3054V19.9695C9.87752 20.15 9.73024 20.2977 9.55022 20.2977ZM4.94172 19.6412H9.22291V9.63362H4.94172V19.6412Z" fill="white"/>
<path d="M7.08231 9.63357C6.90229 9.63357 6.755 9.48587 6.755 9.30535V6.44651C6.755 6.26599 6.90229 6.11829 7.08231 6.11829C7.26233 6.11829 7.40962 6.26599 7.40962 6.44651V9.30535C7.40962 9.48587 7.26233 9.63357 7.08231 9.63357Z" fill="white"/>
<path d="M7.08231 23.1532C6.90229 23.1532 6.755 23.0055 6.755 22.825V19.9662C6.755 19.7856 6.90229 19.6379 7.08231 19.6379C7.26233 19.6379 7.40962 19.7856 7.40962 19.9662V22.825C7.40962 23.0055 7.26233 23.1532 7.08231 23.1532Z" fill="white"/>
<path d="M18.2566 15.7419H13.3208C13.1408 15.7419 12.9935 15.5942 12.9935 15.4137V4.74961C12.9935 4.56909 13.1408 4.42139 13.3208 4.42139H18.2566C18.4367 4.42139 18.5839 4.56909 18.5839 4.74961V15.4137C18.5839 15.5942 18.4367 15.7419 18.2566 15.7419ZM13.6481 15.0854H17.9293V5.07784H13.6481V15.0854Z" fill="white"/>
<path d="M15.7887 5.08108C15.6087 5.08108 15.4614 4.93338 15.4614 4.75286V1.89402C15.4614 1.7135 15.6087 1.5658 15.7887 1.5658C15.9688 1.5658 16.116 1.7135 16.116 1.89402V4.75286C16.116 4.93338 15.9688 5.08108 15.7887 5.08108Z" fill="white"/>
<path d="M15.7887 18.6008C15.6087 18.6008 15.4614 18.4531 15.4614 18.2725V15.4137C15.4614 15.2332 15.6087 15.0854 15.7887 15.0854C15.9688 15.0854 16.116 15.2332 16.116 15.4137V18.2725C16.116 18.4531 15.9688 18.6008 15.7887 18.6008Z" fill="white"/>
<path d="M26.8027 18.3316H21.8669C21.6868 18.3316 21.5396 18.1839 21.5396 18.0034V7.33933C21.5396 7.15881 21.6868 7.01111 21.8669 7.01111H26.8027C26.9827 7.01111 27.13 7.15881 27.13 7.33933V18.0034C27.13 18.1839 26.9827 18.3316 26.8027 18.3316ZM22.1942 17.6752H26.4754V7.66756H22.1942V17.6752Z" fill="white"/>
<path d="M24.3348 7.66753C24.1547 7.66753 24.0074 7.51983 24.0074 7.3393V4.48045C24.0074 4.29992 24.1547 4.15222 24.3348 4.15222C24.5148 4.15222 24.6621 4.29992 24.6621 4.48045V7.3393C24.6621 7.51983 24.5148 7.66753 24.3348 7.66753Z" fill="white"/>
<path d="M24.3348 21.1905C24.1547 21.1905 24.0074 21.0428 24.0074 20.8623V18.0034C24.0074 17.8229 24.1547 17.6752 24.3348 17.6752C24.5148 17.6752 24.6621 17.8229 24.6621 18.0034V20.8623C24.6621 21.0428 24.5148 21.1905 24.3348 21.1905Z" fill="white"/>
</svg>
