<svg width="28" height="27" viewBox="0 0 28 27" fill="none" xmlns="http://www.w3.org/2000/svg">
<path d="M14.1915 25.5574C7.56027 25.5574 2.16296 20.1482 2.16296 13.4951C2.16296 6.84192 7.557 1.43274 14.1915 1.43274C20.826 1.43274 26.2201 6.84192 26.2201 13.4951C26.2201 20.1482 20.826 25.5574 14.1915 25.5574ZM14.1915 2.09248C7.92031 2.09248 2.81758 7.20954 2.81758 13.4984C2.81758 19.7872 7.92031 24.9042 14.1915 24.9042C20.4627 24.9042 25.5655 19.7872 25.5655 13.4984C25.5655 7.20954 20.4627 2.09248 14.1915 2.09248Z" fill="white"/>
<path d="M1.24317 26.414C1.15807 26.414 1.07624 26.3812 1.01078 26.3188C0.883127 26.1908 0.883127 25.984 1.01078 25.856L3.08263 23.7784C3.21028 23.6504 3.41649 23.6504 3.54414 23.7784C3.67179 23.9064 3.67179 24.1132 3.54414 24.2412L1.47228 26.3188C1.40682 26.3845 1.325 26.414 1.2399 26.414H1.24317Z" fill="white"/>
<path d="M1.05338 26.6044C0.873363 26.6044 0.726074 26.4567 0.726074 26.2762V23.3911C0.726074 23.2106 0.873363 23.0629 1.05338 23.0629C1.2334 23.0629 1.38069 23.2106 1.38069 23.3911V26.2762C1.38069 26.4567 1.2334 26.6044 1.05338 26.6044Z" fill="white"/>
<path d="M3.93041 26.6045H1.05338C0.873363 26.6045 0.726074 26.4567 0.726074 26.2762C0.726074 26.0957 0.873363 25.948 1.05338 25.948H3.93041C4.11043 25.948 4.25772 26.0957 4.25772 26.2762C4.25772 26.4567 4.11043 26.6045 3.93041 26.6045Z" fill="white"/>
<path d="M26.7568 26.414C26.6717 26.414 26.5899 26.3812 26.5244 26.3188L24.4525 24.2412C24.3249 24.1132 24.3249 23.9064 24.4525 23.7784C24.5802 23.6504 24.7864 23.6504 24.9141 23.7784L26.9859 25.856C27.1136 25.984 27.1136 26.1908 26.9859 26.3188C26.9205 26.3845 26.8386 26.414 26.7535 26.414H26.7568Z" fill="white"/>
<path d="M26.9467 26.6044C26.7667 26.6044 26.6194 26.4567 26.6194 26.2762V23.3911C26.6194 23.2106 26.7667 23.0629 26.9467 23.0629C27.1267 23.0629 27.274 23.2106 27.274 23.3911V26.2762C27.274 26.4567 27.1267 26.6044 26.9467 26.6044Z" fill="white"/>
<path d="M26.9466 26.6045H24.0696C23.8896 26.6045 23.7423 26.4567 23.7423 26.2762C23.7423 26.0957 23.8896 25.948 24.0696 25.948H26.9466C27.1267 25.948 27.274 26.0957 27.274 26.2762C27.274 26.4567 27.1267 26.6045 26.9466 26.6045Z" fill="white"/>
<path d="M24.6849 3.71065C24.5998 3.71065 24.518 3.67786 24.4525 3.6155C24.3249 3.48749 24.3249 3.28069 24.4525 3.15269L26.5244 1.07501C26.6521 0.947002 26.8583 0.947002 26.9859 1.07501C27.1136 1.20302 27.1136 1.40979 26.9859 1.5378L24.9141 3.6155C24.8486 3.68114 24.7668 3.71065 24.6817 3.71065H24.6849Z" fill="white"/>
<path d="M26.9467 4.32439C26.7667 4.32439 26.6194 4.17669 26.6194 3.99616V1.11106C26.6194 0.930539 26.7667 0.782837 26.9467 0.782837C27.1267 0.782837 27.274 0.930539 27.274 1.11106V3.99616C27.274 4.17669 27.1267 4.32439 26.9467 4.32439Z" fill="white"/>
<path d="M26.9466 1.43929H24.0696C23.8896 1.43929 23.7423 1.29159 23.7423 1.11106C23.7423 0.930539 23.8896 0.782837 24.0696 0.782837H26.9466C27.1267 0.782837 27.274 0.930539 27.274 1.11106C27.274 1.29159 27.1267 1.43929 26.9466 1.43929Z" fill="white"/>
<path d="M3.31832 3.71065C3.23322 3.71065 3.15139 3.67786 3.08593 3.6155L1.01407 1.5378C0.886422 1.40979 0.886422 1.20302 1.01407 1.07501C1.14172 0.947002 1.34792 0.947002 1.47557 1.07501L3.54743 3.15269C3.67508 3.28069 3.67508 3.48749 3.54743 3.6155C3.48197 3.68114 3.40014 3.71065 3.31504 3.71065H3.31832Z" fill="white"/>
<path d="M1.05338 4.32439C0.873363 4.32439 0.726074 4.17669 0.726074 3.99616V1.11106C0.726074 0.930539 0.873363 0.782837 1.05338 0.782837C1.2334 0.782837 1.38069 0.930539 1.38069 1.11106V3.99616C1.38069 4.17669 1.2334 4.32439 1.05338 4.32439Z" fill="white"/>
<path d="M3.93041 1.43929H1.05338C0.873363 1.43929 0.726074 1.29159 0.726074 1.11106C0.726074 0.930539 0.873363 0.782837 1.05338 0.782837H3.93041C4.11043 0.782837 4.25772 0.930539 4.25772 1.11106C4.25772 1.29159 4.11043 1.43929 3.93041 1.43929Z" fill="white"/>
<path d="M25.8928 13.8266H2.49357C2.31355 13.8266 2.16626 13.6789 2.16626 13.4984C2.16626 13.3179 2.31355 13.1702 2.49357 13.1702H25.8928C26.0728 13.1702 26.2201 13.3179 26.2201 13.4984C26.2201 13.6789 26.0728 13.8266 25.8928 13.8266Z" fill="white"/>
<path d="M22.5313 21.8944C22.4462 21.8944 22.3611 21.8616 22.2956 21.7926C21.3301 20.7883 18.6331 18.4382 14.4926 18.297C9.9496 18.1461 6.90891 20.8014 6.08409 21.6187C5.95644 21.7467 5.74697 21.7467 5.62259 21.6187C5.49494 21.4907 5.49494 21.2806 5.62259 21.1559C6.49323 20.2894 9.70412 17.4765 14.5155 17.6439C18.8982 17.7949 21.7458 20.2795 22.767 21.3397C22.8913 21.471 22.8881 21.6778 22.7571 21.8025C22.695 21.8648 22.6131 21.8944 22.5313 21.8944Z" fill="white"/>
<path d="M14.2734 9.36263C14.1392 9.36263 14.005 9.36267 13.8708 9.3561C9.48811 9.20512 6.64053 6.72044 5.61933 5.66027C5.49496 5.52898 5.49823 5.32219 5.62915 5.19746C5.76008 5.07274 5.96628 5.07603 6.09066 5.20732C7.05621 6.21169 9.74996 8.5618 13.8937 8.70294C18.4334 8.84079 21.4774 6.19853 22.3022 5.38125C22.4299 5.25324 22.6393 5.25324 22.7637 5.38125C22.8914 5.50926 22.8914 5.71933 22.7637 5.84406C21.9193 6.68432 18.8589 9.36263 14.2766 9.36263H14.2734Z" fill="white"/>
<path d="M14.9214 25.3735C14.8526 25.3735 14.7839 25.3505 14.725 25.3079C14.581 25.1996 14.5515 24.9928 14.6628 24.8484C15.6742 23.5092 18.0406 19.7674 18.1846 14.007C18.3417 7.68212 15.6644 3.46114 14.8396 2.31891C14.7348 2.17121 14.7675 1.96772 14.9116 1.85941C15.0588 1.75438 15.2618 1.78719 15.3698 1.93161C16.2241 3.11651 19.0029 7.48848 18.8392 14.0202C18.692 19.9709 16.2339 23.8505 15.1865 25.2422C15.121 25.3275 15.0228 25.3735 14.9247 25.3735H14.9214Z" fill="white"/>
<path d="M13.2227 25.3735C13.1245 25.3735 13.0263 25.3276 12.9608 25.2422C11.9102 23.8506 9.45535 19.971 9.30806 14.0202C9.14768 7.48852 11.9233 3.11654 12.7775 1.93165C12.8823 1.78395 13.0885 1.75113 13.2358 1.85945C13.383 1.96448 13.4158 2.17125 13.3078 2.31895C12.4829 3.46118 9.80557 7.67888 9.96268 14.0071C10.1067 19.7674 12.4731 23.5092 13.4845 24.8484C13.5925 24.9928 13.5663 25.1996 13.4223 25.3079C13.3634 25.3539 13.2947 25.3735 13.2259 25.3735H13.2227Z" fill="white"/>
</svg>
