<svg width="34" height="28" viewBox="0 0 34 28" fill="none" xmlns="http://www.w3.org/2000/svg">
<path d="M26.8078 27.1944H0.508667V1.2219C0.508667 1.04138 0.655955 0.893677 0.835975 0.893677C1.01599 0.893677 1.16328 1.04138 1.16328 1.2219V26.538H26.8078C26.9879 26.538 27.1351 26.6857 27.1351 26.8662C27.1351 27.0467 26.9879 27.1944 26.8078 27.1944Z" fill="white"/>
<path d="M6.6719 27.1944H3.08134C2.90132 27.1944 2.75403 27.0467 2.75403 26.8662V16.4286C2.75403 16.248 2.90132 16.1003 3.08134 16.1003H6.6719C6.85192 16.1003 6.99921 16.248 6.99921 16.4286V26.8662C6.99921 27.0467 6.85192 27.1944 6.6719 27.1944ZM3.40864 26.5379H6.34459V16.7568H3.40864V26.5379Z" fill="white"/>
<path d="M12.6027 27.1945H9.01212C8.8321 27.1945 8.68481 27.0468 8.68481 26.8662V12.8346C8.68481 12.654 8.8321 12.5063 9.01212 12.5063H12.6027C12.7827 12.5063 12.93 12.654 12.93 12.8346V26.8662C12.93 27.0468 12.7827 27.1945 12.6027 27.1945ZM9.34271 26.538H12.2787V13.1628H9.34271V26.538Z" fill="white"/>
<path d="M18.6349 27.1944H15.0443C14.8643 27.1944 14.717 27.0467 14.717 26.8662V15.5851C14.717 15.4045 14.8643 15.2568 15.0443 15.2568H17.4173C17.5973 15.2568 17.7446 15.4045 17.7446 15.5851C17.7446 15.7656 17.5973 15.9133 17.4173 15.9133H15.3717V26.538H18.3076V16.6879C18.3076 16.5074 18.4549 16.3597 18.6349 16.3597C18.8149 16.3597 18.9622 16.5074 18.9622 16.6879V26.8662C18.9622 27.0467 18.8149 27.1944 18.6349 27.1944Z" fill="white"/>
<path d="M24.6673 27.1944H21.0767C20.8967 27.1944 20.7494 27.0467 20.7494 26.8662V17.8695C20.7494 17.689 20.8967 17.5413 21.0767 17.5413C21.2567 17.5413 21.404 17.689 21.404 17.8695V26.5379H24.34V18.1091C24.34 17.9286 24.4872 17.7809 24.6673 17.7809C24.8473 17.7809 24.9946 17.9286 24.9946 18.1091V26.8662C24.9946 27.0467 24.8473 27.1944 24.6673 27.1944Z" fill="white"/>
<path d="M24.6673 16.2054C24.4872 16.2054 24.34 16.0577 24.34 15.8772V12.4472H21.404V15.5555C21.404 15.736 21.2567 15.8837 21.0767 15.8837C20.8967 15.8837 20.7494 15.736 20.7494 15.5555V12.119C20.7494 11.9385 20.8967 11.7908 21.0767 11.7908H24.6673C24.8473 11.7908 24.9946 11.9385 24.9946 12.119V15.8772C24.9946 16.0577 24.8473 16.2054 24.6673 16.2054Z" fill="white"/>
<path d="M3.72939 13.4647C3.64102 13.4647 3.55592 13.4286 3.49046 13.3597C3.36608 13.2284 3.37263 13.0183 3.50683 12.8969L9.13979 7.5993C9.22816 7.51396 9.35581 7.4877 9.47364 7.53037L15.6074 9.69009C15.7776 9.74917 15.8692 9.93626 15.807 10.1069C15.7481 10.2776 15.5616 10.3695 15.3914 10.3072L9.44419 8.21308L3.95524 13.3761C3.89305 13.4352 3.81122 13.4647 3.73267 13.4647H3.72939Z" fill="white"/>
<path d="M23.3712 16.4614C20.085 16.4614 17.4109 13.7798 17.4109 10.4844C17.4109 7.18905 20.085 4.50745 23.3712 4.50745C26.6573 4.50745 29.3314 7.18905 29.3314 10.4844C29.3314 13.7798 26.6573 16.4614 23.3712 16.4614ZM23.3712 5.1639C20.445 5.1639 18.0655 7.5501 18.0655 10.4844C18.0655 13.4188 20.445 15.805 23.3712 15.805C26.2973 15.805 28.6768 13.4188 28.6768 10.4844C28.6768 7.5501 26.2973 5.1639 23.3712 5.1639Z" fill="white"/>
<path d="M23.3711 18.549C18.9393 18.549 15.3324 14.9319 15.3324 10.4877C15.3324 6.04357 18.9393 2.42651 23.3711 2.42651C27.8028 2.42651 31.4097 6.04357 31.4097 10.4877C31.4097 14.9319 27.8028 18.549 23.3711 18.549ZM23.3711 3.07969C19.2994 3.07969 15.987 6.40133 15.987 10.4845C15.987 14.5676 19.2994 17.8892 23.3711 17.8892C27.4428 17.8892 30.7551 14.5676 30.7551 10.4845C30.7551 6.40133 27.4428 3.07969 23.3711 3.07969Z" fill="white"/>
<path d="M31.4917 22.4647C31.4589 22.4647 31.4262 22.4647 31.3935 22.4647C30.9942 22.4385 30.6276 22.2579 30.3625 21.9593L26.8079 17.9024C26.7261 17.8072 26.6541 17.7022 26.5984 17.5906C26.5166 17.4297 26.5821 17.2328 26.7424 17.1507C26.9028 17.0687 27.0992 17.1343 27.181 17.2952C27.2138 17.3575 27.253 17.4166 27.2989 17.4691L30.8534 21.526C31.0007 21.6967 31.2069 21.7951 31.4327 21.8115C31.6586 21.828 31.8746 21.7525 32.0448 21.6048L32.5489 21.1617C32.7191 21.014 32.8173 20.8072 32.8336 20.5807C32.8467 20.3542 32.7747 20.1376 32.6274 19.9669L29.0729 15.91C29.0434 15.8772 29.0139 15.8477 28.9812 15.8181C28.8437 15.7033 28.8241 15.4965 28.9387 15.3553C29.0532 15.2175 29.2627 15.1978 29.4002 15.3127C29.4591 15.3619 29.5147 15.4144 29.5638 15.4735L33.1184 19.5304C33.3802 19.8323 33.5112 20.2164 33.4882 20.6201C33.4621 21.0205 33.282 21.3881 32.9842 21.654L32.4801 22.0971C32.2052 22.34 31.8583 22.4713 31.4949 22.4713L31.4917 22.4647Z" fill="white"/>
<path d="M18.1015 12.0633C18.0065 12.0633 17.9116 12.0206 17.8462 11.9418C17.7316 11.8007 17.7545 11.5939 17.8953 11.479L23.7672 6.70989C23.9079 6.59501 24.1141 6.61799 24.2287 6.75912C24.3432 6.90026 24.3203 7.10704 24.1796 7.22192L18.3077 11.991C18.2455 12.0403 18.1735 12.0633 18.1015 12.0633Z" fill="white"/>
<path d="M24.1796 10.2711C23.9996 10.2711 23.8523 10.1234 23.8523 9.94289V6.74925C23.8523 6.56872 23.9996 6.42102 24.1796 6.42102C24.3596 6.42102 24.5069 6.56872 24.5069 6.74925V9.94289C24.5069 10.1234 24.3596 10.2711 24.1796 10.2711Z" fill="white"/>
<path d="M24.1076 7.07747H20.9229C20.7429 7.07747 20.5956 6.92977 20.5956 6.74925C20.5956 6.56872 20.7429 6.42102 20.9229 6.42102H24.1076C24.2876 6.42102 24.4349 6.56872 24.4349 6.74925C24.4349 6.92977 24.2876 7.07747 24.1076 7.07747Z" fill="white"/>
</svg>
