<svg width="383" height="436" viewBox="0 0 383 436" fill="none" xmlns="http://www.w3.org/2000/svg">
<path style="mix-blend-mode:screen" d="M275.735 352.611C334.976 352.611 383 304.5 383 245.153C383 185.805 334.976 137.695 275.735 137.695C216.494 137.695 168.47 185.805 168.47 245.153C168.47 304.5 216.494 352.611 275.735 352.611Z" fill="url(#paint0_linear_32_103)"/>
<path style="mix-blend-mode:screen" d="M107.265 344.336C166.506 344.336 214.53 296.225 214.53 236.878C214.53 177.531 166.506 129.42 107.265 129.42C48.0242 129.42 0 177.531 0 236.878C0 296.225 48.0242 344.336 107.265 344.336Z" fill="url(#paint1_linear_32_103)"/>
<path style="mix-blend-mode:screen" d="M191.371 214.916C250.612 214.916 298.636 166.805 298.636 107.458C298.636 48.1106 250.612 0 191.371 0C132.13 0 84.106 48.1106 84.106 107.458C84.106 166.805 132.13 214.916 191.371 214.916Z" fill="url(#paint2_linear_32_103)"/>
<path d="M117.152 413.309V415.973H110.301V420.193H115.552V422.81H110.301V429.766H107.007V413.309H117.152Z" fill="white"/>
<path d="M131.793 416.708V429.772H128.473V428.123C128.05 428.686 127.495 429.13 126.814 429.454C126.132 429.779 125.392 429.938 124.592 429.938C123.573 429.938 122.667 429.719 121.887 429.289C121.106 428.858 120.485 428.222 120.042 427.381C119.592 426.539 119.374 425.539 119.374 424.373V416.708H122.667V423.903C122.667 424.943 122.925 425.738 123.441 426.294C123.957 426.851 124.664 427.129 125.557 427.129C126.45 427.129 127.184 426.851 127.7 426.294C128.216 425.738 128.473 424.936 128.473 423.903V416.708H131.793Z" fill="white"/>
<path d="M138.883 419.417V425.738C138.883 426.182 138.988 426.5 139.2 426.692C139.412 426.891 139.769 426.99 140.271 426.99H141.799V429.772H139.729C136.952 429.772 135.563 428.421 135.563 425.718V419.424H134.009V416.714H135.563V413.481H138.883V416.714H141.799V419.424H138.883V419.417Z" fill="white"/>
<path d="M156.487 416.708V429.772H153.167V428.123C152.744 428.686 152.188 429.13 151.507 429.454C150.826 429.779 150.085 429.938 149.285 429.938C148.267 429.938 147.361 429.719 146.58 429.289C145.8 428.858 145.178 428.222 144.735 427.381C144.286 426.539 144.067 425.539 144.067 424.373V416.708H147.361V423.903C147.361 424.943 147.619 425.738 148.134 426.294C148.65 426.851 149.358 427.129 150.251 427.129C151.143 427.129 151.877 426.851 152.393 426.294C152.909 425.738 153.167 424.936 153.167 423.903V416.708H156.487Z" fill="white"/>
<path d="M164.687 417.106C165.368 416.715 166.149 416.516 167.028 416.516V419.981H166.155C165.117 419.981 164.337 420.226 163.814 420.71C163.285 421.2 163.027 422.048 163.027 423.254V429.759H159.734V416.695H163.027V418.722C163.45 418.033 164.006 417.49 164.687 417.092V417.106Z" fill="white"/>
<path d="M169.184 419.676C169.706 418.656 170.421 417.867 171.327 417.317C172.226 416.768 173.238 416.489 174.349 416.489C175.321 416.489 176.174 416.688 176.901 417.079C177.629 417.47 178.217 417.967 178.654 418.563V416.701H181.974V429.766H178.654V427.858C178.231 428.467 177.649 428.977 176.901 429.382C176.154 429.779 175.294 429.984 174.322 429.984C173.225 429.984 172.226 429.7 171.32 429.136C170.421 428.573 169.706 427.772 169.177 426.745C168.648 425.718 168.39 424.532 168.39 423.194C168.39 421.856 168.655 420.703 169.177 419.683L169.184 419.676ZM178.191 421.18C177.874 420.603 177.45 420.166 176.921 419.861C176.386 419.557 175.817 419.404 175.202 419.404C174.587 419.404 174.025 419.557 173.509 419.855C172.993 420.153 172.57 420.59 172.252 421.167C171.935 421.743 171.77 422.419 171.77 423.207C171.77 423.995 171.928 424.678 172.252 425.267C172.576 425.857 173 426.308 173.522 426.626C174.045 426.937 174.607 427.096 175.202 427.096C175.797 427.096 176.386 426.944 176.921 426.639C177.457 426.334 177.88 425.89 178.191 425.32C178.502 424.744 178.661 424.062 178.661 423.26C178.661 422.458 178.502 421.769 178.191 421.2V421.18Z" fill="white"/>
<path d="M191.1 417.165C191.827 415.886 192.826 414.886 194.089 414.17C195.352 413.455 196.767 413.097 198.335 413.097C200.173 413.097 201.78 413.568 203.162 414.515C204.544 415.456 205.51 416.761 206.059 418.43H202.27C201.893 417.642 201.364 417.052 200.682 416.661C200.001 416.271 199.214 416.072 198.315 416.072C197.356 416.072 196.503 416.297 195.762 416.741C195.015 417.191 194.433 417.821 194.023 418.642C193.606 419.457 193.401 420.418 193.401 421.518C193.401 422.617 193.606 423.558 194.023 424.386C194.44 425.214 195.022 425.85 195.762 426.294C196.509 426.745 197.356 426.963 198.315 426.963C199.208 426.963 199.995 426.765 200.682 426.36C201.364 425.963 201.893 425.367 202.27 424.578H206.059C205.51 426.261 204.551 427.573 203.176 428.507C201.8 429.441 200.193 429.912 198.341 429.912C196.774 429.912 195.352 429.554 194.096 428.838C192.833 428.123 191.834 427.129 191.107 425.857C190.379 424.585 190.009 423.134 190.009 421.518C190.009 419.901 190.373 418.45 191.107 417.165H191.1Z" fill="white"/>
<path d="M208.823 419.676C209.346 418.656 210.06 417.867 210.966 417.317C211.865 416.768 212.877 416.489 213.988 416.489C214.96 416.489 215.813 416.688 216.541 417.079C217.268 417.47 217.857 417.967 218.293 418.563V416.701H221.613V429.766H218.293V427.858C217.87 428.467 217.288 428.977 216.541 429.382C215.793 429.779 214.934 429.984 213.962 429.984C212.864 429.984 211.865 429.7 210.959 429.136C210.06 428.573 209.346 427.772 208.817 426.745C208.287 425.718 208.03 424.532 208.03 423.194C208.03 421.856 208.294 420.703 208.817 419.683L208.823 419.676ZM217.83 421.18C217.513 420.603 217.09 420.166 216.56 419.861C216.025 419.557 215.456 419.404 214.841 419.404C214.226 419.404 213.664 419.557 213.148 419.855C212.632 420.153 212.209 420.59 211.892 421.167C211.574 421.743 211.409 422.419 211.409 423.207C211.409 423.995 211.568 424.678 211.892 425.267C212.216 425.857 212.639 426.308 213.161 426.626C213.684 426.937 214.246 427.096 214.841 427.096C215.436 427.096 216.025 426.944 216.56 426.639C217.096 426.334 217.519 425.89 217.83 425.32C218.141 424.744 218.3 424.062 218.3 423.26C218.3 422.458 218.141 421.769 217.83 421.2V421.18Z" fill="white"/>
<path d="M229.893 417.099C230.64 416.695 231.487 416.496 232.445 416.496C233.556 416.496 234.568 416.774 235.468 417.324C236.367 417.874 237.081 418.656 237.61 419.669C238.133 420.683 238.397 421.856 238.397 423.194C238.397 424.532 238.133 425.711 237.61 426.745C237.081 427.772 236.367 428.573 235.468 429.136C234.568 429.7 233.556 429.984 232.445 429.984C231.487 429.984 230.647 429.786 229.913 429.395C229.179 429.004 228.59 428.507 228.134 427.911V436H224.84V416.708H228.134V418.596C228.557 418 229.139 417.503 229.886 417.099H229.893ZM234.555 421.153C234.231 420.577 233.808 420.146 233.285 419.841C232.756 419.543 232.188 419.391 231.579 419.391C230.971 419.391 230.422 419.543 229.899 419.848C229.377 420.153 228.947 420.597 228.63 421.18C228.306 421.763 228.147 422.445 228.147 423.234C228.147 424.022 228.306 424.704 228.63 425.287C228.954 425.87 229.377 426.314 229.899 426.619C230.422 426.924 230.984 427.076 231.579 427.076C232.174 427.076 232.763 426.917 233.285 426.606C233.808 426.294 234.238 425.844 234.555 425.261C234.879 424.678 235.038 423.989 235.038 423.187C235.038 422.386 234.879 421.723 234.555 421.147V421.153Z" fill="white"/>
<path d="M241.023 414.594C240.639 414.223 240.447 413.766 240.447 413.216C240.447 412.667 240.639 412.21 241.023 411.839C241.406 411.468 241.889 411.282 242.471 411.282C243.053 411.282 243.536 411.468 243.919 411.839C244.303 412.21 244.495 412.667 244.495 413.216C244.495 413.766 244.303 414.23 243.919 414.594C243.536 414.966 243.053 415.151 242.471 415.151C241.889 415.151 241.406 414.966 241.023 414.594ZM244.098 416.708V429.772H240.804V416.708H244.098Z" fill="white"/>
<path d="M251.18 419.417V425.738C251.18 426.182 251.286 426.5 251.498 426.692C251.709 426.891 252.066 426.99 252.569 426.99H254.097V429.772H252.027C249.249 429.772 247.86 428.421 247.86 425.718V419.424H246.306V416.714H247.86V413.481H251.18V416.714H254.097V419.424H251.18V419.417Z" fill="white"/>
<path d="M256.418 419.676C256.941 418.656 257.655 417.867 258.561 417.317C259.46 416.768 260.472 416.489 261.583 416.489C262.555 416.489 263.408 416.688 264.136 417.079C264.863 417.47 265.452 417.967 265.888 418.563V416.701H269.208V429.766H265.888V427.858C265.465 428.467 264.883 428.977 264.136 429.382C263.388 429.779 262.529 429.984 261.556 429.984C260.459 429.984 259.46 429.7 258.554 429.136C257.655 428.573 256.941 427.772 256.411 426.745C255.882 425.718 255.625 424.532 255.625 423.194C255.625 421.856 255.889 420.703 256.411 419.683L256.418 419.676ZM265.425 421.18C265.108 420.603 264.685 420.166 264.155 419.861C263.62 419.557 263.051 419.404 262.436 419.404C261.821 419.404 261.259 419.557 260.743 419.855C260.227 420.153 259.804 420.59 259.487 421.167C259.169 421.743 259.004 422.419 259.004 423.207C259.004 423.995 259.163 424.678 259.487 425.267C259.811 425.857 260.234 426.308 260.756 426.626C261.279 426.937 261.841 427.096 262.436 427.096C263.031 427.096 263.62 426.944 264.155 426.639C264.691 426.334 265.114 425.89 265.425 425.32C265.736 424.744 265.895 424.062 265.895 423.26C265.895 422.458 265.736 421.769 265.425 421.2V421.18Z" fill="white"/>
<path d="M275.735 412.322V429.772H272.442V412.322H275.735Z" fill="white"/>
<path d="M256.001 262.808C255.704 263.365 255.234 263.815 254.586 264.16C253.938 264.504 253.111 264.683 252.1 264.683H249.878V269.672H247.867V257.376H252.106C253.045 257.376 253.845 257.541 254.5 257.859C255.155 258.184 255.644 258.621 255.968 259.178C256.292 259.734 256.451 260.35 256.451 261.033C256.451 261.656 256.306 262.245 256.008 262.802L256.001 262.808ZM253.812 262.517C254.189 262.172 254.375 261.675 254.375 261.039C254.375 259.694 253.614 259.025 252.1 259.025H249.878V263.04H252.1C252.867 263.04 253.435 262.868 253.812 262.517Z" fill="white"/>
<path d="M261.55 260.185C262.039 259.906 262.621 259.767 263.289 259.767V261.854H262.78C261.993 261.854 261.391 262.053 260.988 262.457C260.584 262.861 260.379 263.557 260.379 264.544V269.672H258.369V259.926H260.379V261.344C260.67 260.847 261.067 260.463 261.556 260.185H261.55Z" fill="white"/>
<path d="M266.873 269.201C266.133 268.784 265.551 268.194 265.128 267.433C264.704 266.671 264.493 265.789 264.493 264.789C264.493 263.789 264.711 262.921 265.147 262.152C265.584 261.384 266.179 260.794 266.933 260.383C267.687 259.973 268.527 259.767 269.459 259.767C270.392 259.767 271.231 259.973 271.985 260.383C272.739 260.794 273.334 261.384 273.771 262.152C274.207 262.921 274.426 263.795 274.426 264.789C274.426 265.783 274.201 266.657 273.758 267.426C273.308 268.194 272.7 268.784 271.932 269.201C271.159 269.619 270.312 269.831 269.38 269.831C268.447 269.831 267.634 269.619 266.893 269.201H266.873ZM270.821 267.711C271.278 267.466 271.641 267.095 271.926 266.598C272.21 266.101 272.349 265.498 272.349 264.796C272.349 264.093 272.21 263.491 271.946 263C271.675 262.51 271.317 262.146 270.868 261.894C270.418 261.649 269.935 261.523 269.419 261.523C268.904 261.523 268.421 261.649 267.978 261.894C267.535 262.139 267.184 262.51 266.926 263C266.668 263.491 266.536 264.087 266.536 264.796C266.536 265.842 266.801 266.657 267.336 267.227C267.872 267.797 268.547 268.082 269.36 268.082C269.876 268.082 270.365 267.956 270.815 267.711H270.821Z" fill="white"/>
<path d="M278.757 261.569V266.962C278.757 267.327 278.843 267.592 279.015 267.751C279.187 267.91 279.478 267.989 279.888 267.989H281.125V269.672H279.537C278.631 269.672 277.937 269.46 277.454 269.036C276.972 268.612 276.733 267.923 276.733 266.969V261.576H275.583V259.933H276.733V257.508H278.764V259.933H281.131V261.576H278.764L278.757 261.569Z" fill="white"/>
<path d="M291.825 265.551H284.392C284.451 266.326 284.735 266.956 285.258 267.426C285.78 267.896 286.409 268.135 287.162 268.135C288.247 268.135 289.008 267.678 289.457 266.77H291.626C291.335 267.664 290.8 268.4 290.026 268.97C289.252 269.539 288.3 269.824 287.156 269.824C286.223 269.824 285.39 269.612 284.656 269.195C283.922 268.777 283.347 268.188 282.923 267.426C282.5 266.664 282.295 265.783 282.295 264.783C282.295 263.782 282.5 262.901 282.904 262.139C283.307 261.377 283.882 260.794 284.616 260.377C285.35 259.959 286.197 259.761 287.149 259.761C288.102 259.761 288.882 259.959 289.603 260.364C290.324 260.768 290.879 261.331 291.282 262.053C291.686 262.775 291.884 263.61 291.884 264.557C291.884 264.922 291.858 265.253 291.811 265.551H291.825ZM289.794 263.921C289.781 263.179 289.517 262.583 289.001 262.133C288.485 261.682 287.844 261.463 287.076 261.463C286.382 261.463 285.787 261.682 285.291 262.126C284.795 262.57 284.504 263.166 284.411 263.921H289.794Z" fill="white"/>
<path d="M293.809 262.146C294.212 261.384 294.774 260.801 295.495 260.383C296.216 259.973 297.036 259.767 297.968 259.767C299.145 259.767 300.118 260.046 300.891 260.609C301.665 261.172 302.181 261.967 302.452 263.007H300.283C300.104 262.523 299.827 262.146 299.436 261.874C299.046 261.602 298.557 261.47 297.968 261.47C297.142 261.47 296.487 261.761 295.998 262.344C295.508 262.927 295.264 263.742 295.264 264.796C295.264 265.849 295.508 266.664 295.998 267.254C296.487 267.843 297.142 268.135 297.968 268.135C299.132 268.135 299.906 267.625 300.283 266.598H302.452C302.168 267.591 301.639 268.373 300.865 268.956C300.091 269.539 299.126 269.831 297.968 269.831C297.036 269.831 296.216 269.619 295.495 269.201C294.774 268.784 294.212 268.194 293.809 267.433C293.405 266.671 293.2 265.789 293.2 264.789C293.2 263.789 293.405 262.908 293.809 262.146Z" fill="white"/>
<path d="M306.81 261.569V266.962C306.81 267.327 306.896 267.592 307.068 267.751C307.24 267.91 307.531 267.989 307.941 267.989H309.178V269.672H307.59C306.684 269.672 305.99 269.46 305.507 269.036C305.024 268.612 304.786 267.923 304.786 266.969V261.576H303.636V259.933H304.786V257.508H306.817V259.933H309.184V261.576H306.817L306.81 261.569Z" fill="white"/>
<path d="M311.135 258.264C310.89 258.018 310.765 257.707 310.765 257.343C310.765 256.978 310.89 256.674 311.135 256.422C311.38 256.177 311.69 256.051 312.054 256.051C312.418 256.051 312.709 256.177 312.954 256.422C313.198 256.667 313.324 256.978 313.324 257.343C313.324 257.707 313.198 258.012 312.954 258.264C312.709 258.515 312.405 258.635 312.054 258.635C311.704 258.635 311.386 258.509 311.135 258.264ZM313.046 259.926V269.672H311.036V259.926H313.046Z" fill="white"/>
<path d="M317.424 269.201C316.683 268.784 316.102 268.194 315.678 267.433C315.255 266.671 315.043 265.789 315.043 264.789C315.043 263.789 315.262 262.921 315.698 262.152C316.135 261.384 316.73 260.794 317.484 260.383C318.238 259.973 319.077 259.767 320.01 259.767C320.942 259.767 321.782 259.973 322.536 260.383C323.29 260.794 323.885 261.384 324.322 262.152C324.758 262.921 324.976 263.795 324.976 264.789C324.976 265.783 324.752 266.657 324.308 267.426C323.859 268.194 323.25 268.784 322.483 269.201C321.71 269.619 320.863 269.831 319.931 269.831C318.998 269.831 318.185 269.619 317.444 269.201H317.424ZM321.366 267.711C321.822 267.466 322.186 267.095 322.47 266.598C322.754 266.101 322.893 265.498 322.893 264.796C322.893 264.093 322.754 263.491 322.49 263C322.219 262.51 321.862 262.146 321.412 261.894C320.962 261.649 320.479 261.523 319.964 261.523C319.448 261.523 318.965 261.649 318.522 261.894C318.079 262.139 317.728 262.51 317.47 263C317.213 263.491 317.08 264.087 317.08 264.796C317.08 265.842 317.345 266.657 317.88 267.227C318.416 267.797 319.091 268.082 319.904 268.082C320.42 268.082 320.909 267.956 321.359 267.711H321.366Z" fill="white"/>
<path d="M333.924 260.244C334.532 260.562 335.002 261.033 335.346 261.662C335.69 262.285 335.855 263.04 335.855 263.928V269.678H333.858V264.233C333.858 263.358 333.64 262.689 333.203 262.225C332.767 261.761 332.171 261.53 331.417 261.53C330.664 261.53 330.068 261.761 329.625 262.225C329.182 262.689 328.964 263.358 328.964 264.233V269.678H326.954V259.933H328.964V261.046C329.295 260.648 329.711 260.33 330.227 260.105C330.736 259.88 331.285 259.767 331.861 259.767C332.628 259.767 333.309 259.926 333.917 260.244H333.924Z" fill="white"/>
<path d="M281.23 235.308C279.921 235.308 278.744 235.268 278.671 235.268L278.717 233.943C278.717 233.943 281.429 234.036 283.175 233.943C285.099 233.844 286.785 233.685 287.996 232.704C288.604 232.214 288.736 231.518 288.591 231.048C288.525 230.836 288.34 230.465 287.837 230.419C285.311 230.18 282.447 229.895 280.02 229.644C277.408 229.379 274.948 229.127 274.63 229.127C274.207 229.147 270.914 229.975 267.984 230.763L267.64 229.485C269.108 229.087 273.949 227.802 274.63 227.802C274.994 227.802 276.773 227.981 280.152 228.325C282.573 228.57 285.43 228.862 287.956 229.1C288.875 229.186 289.583 229.769 289.854 230.664C290.178 231.737 289.761 232.976 288.822 233.738C287.176 235.063 284.901 235.182 283.234 235.268C282.619 235.301 281.905 235.308 281.224 235.308H281.23Z" fill="white"/>
<path d="M282.097 241.681C281.475 241.681 280.642 241.635 279.551 241.509C277.481 241.264 275.748 240.82 274.353 240.462C272.938 240.098 271.813 239.806 270.907 239.853C269.016 239.939 267.971 240.157 267.965 240.164L267.687 238.866C267.733 238.852 268.837 238.62 270.848 238.528C271.952 238.481 273.156 238.786 274.683 239.177C276.112 239.541 277.726 239.959 279.709 240.191C282.527 240.528 283.327 240.244 283.333 240.237C283.512 240.164 300.104 233.446 302.3 232.234C303.239 231.717 303.814 231.174 303.96 230.664C304.039 230.386 303.993 230.101 303.814 229.783C303.484 229.186 302.115 229.239 301.506 229.359L289.345 232.89L288.974 231.618L301.196 228.073C301.539 228.001 304.079 227.557 304.965 229.133C305.322 229.763 305.408 230.399 305.23 231.028C304.978 231.909 304.231 232.684 302.935 233.4C300.666 234.652 284.524 241.184 283.843 241.463C283.73 241.522 283.281 241.681 282.103 241.681H282.097Z" fill="white"/>
<path d="M286.137 226.324L285.873 226.205L286.118 225.589L285.853 226.198L285.734 226.145C285.403 226 277.593 222.581 277.593 216.367V208.019L278.479 207.867C278.777 207.814 279.075 207.754 279.366 207.688C279.782 207.595 280.199 207.503 280.615 207.397C281.085 207.277 281.561 207.145 282.024 207.006C282.54 206.847 282.983 206.688 283.386 206.522C283.836 206.337 284.187 206.164 284.478 205.972C284.676 205.846 284.921 205.674 285.066 205.469C285.086 205.442 285.099 205.409 285.112 205.383C285.218 205.184 285.463 204.727 286.065 204.714C286.468 204.694 286.878 204.945 287.063 205.316L287.103 205.403C287.103 205.403 287.123 205.442 287.136 205.462C287.182 205.535 287.242 205.608 287.328 205.687C287.586 205.926 287.91 206.105 288.168 206.237C288.525 206.416 288.915 206.588 289.411 206.767C289.841 206.92 290.304 207.065 290.82 207.218C291.269 207.344 291.726 207.463 292.188 207.569C292.559 207.655 292.929 207.735 293.306 207.814C293.524 207.86 293.749 207.9 293.974 207.94L294.629 208.046V216.393C294.629 222.608 286.819 226.033 286.488 226.172L286.131 226.324H286.137ZM278.922 209.132V216.367C278.922 221.322 285.179 224.43 286.137 224.873C287.229 224.363 293.313 221.269 293.313 216.387V209.152C293.227 209.139 293.141 209.119 293.055 209.099C292.665 209.02 292.281 208.94 291.897 208.848C291.421 208.735 290.945 208.616 290.476 208.483C289.927 208.331 289.431 208.172 288.974 208.006C288.426 207.807 287.982 207.622 287.579 207.41C287.248 207.238 286.819 206.999 286.448 206.655C286.316 206.535 286.21 206.41 286.118 206.284C285.846 206.655 285.489 206.906 285.198 207.085C284.835 207.317 284.425 207.523 283.902 207.741C283.466 207.92 282.983 208.092 282.427 208.265C281.938 208.417 281.449 208.556 280.953 208.675C280.523 208.781 280.093 208.887 279.657 208.98C279.412 209.033 279.167 209.079 278.929 209.126L278.922 209.132Z" fill="white"/>
<path d="M76.6066 262.808C76.309 263.365 75.8394 263.815 75.1914 264.16C74.5433 264.504 73.7166 264.683 72.7048 264.683H70.4828V269.672H68.4724V257.376H72.7114C73.6505 257.376 74.4507 257.541 75.1054 257.859C75.7601 258.184 76.2495 258.621 76.5735 259.178C76.8976 259.734 77.0563 260.35 77.0563 261.033C77.0563 261.656 76.9108 262.245 76.6132 262.802L76.6066 262.808ZM74.4176 262.517C74.7946 262.172 74.9797 261.675 74.9797 261.039C74.9797 259.694 74.2192 259.025 72.7048 259.025H70.4828V263.04H72.7048C73.4719 263.04 74.0407 262.868 74.4176 262.517Z" fill="white"/>
<path d="M82.1616 260.185C82.651 259.906 83.233 259.767 83.9009 259.767V261.854H83.3917C82.6047 261.854 82.0029 262.053 81.5995 262.457C81.1961 262.861 80.9911 263.557 80.9911 264.544V269.672H78.9807V259.926H80.9911V261.344C81.2821 260.847 81.6789 260.463 82.1682 260.185H82.1616Z" fill="white"/>
<path d="M94.6008 265.551H87.1677C87.2272 266.326 87.5115 266.956 88.034 267.426C88.5564 267.896 89.1847 268.135 89.9386 268.135C91.0231 268.135 91.7836 267.678 92.2333 266.77H94.4024C94.1115 267.664 93.5758 268.4 92.8021 268.97C92.0283 269.539 91.076 269.824 89.932 269.824C88.9995 269.824 88.1662 269.612 87.4322 269.195C86.6981 268.777 86.1228 268.188 85.6995 267.426C85.2763 266.664 85.0713 265.783 85.0713 264.783C85.0713 263.782 85.2763 262.901 85.6797 262.139C86.0831 261.377 86.6584 260.794 87.3925 260.377C88.1266 259.959 88.973 259.761 89.9253 259.761C90.8776 259.761 91.658 259.959 92.3788 260.364C93.0996 260.768 93.6551 261.331 94.0585 262.053C94.4619 262.775 94.6603 263.61 94.6603 264.557C94.6603 264.922 94.6339 265.253 94.5876 265.551H94.6008ZM92.5706 263.921C92.5574 263.179 92.2928 262.583 91.777 262.133C91.2612 261.682 90.6197 261.463 89.8526 261.463C89.1582 261.463 88.563 261.682 88.067 262.126C87.5711 262.57 87.2801 263.166 87.1875 263.921H92.5706Z" fill="white"/>
<path d="M96.585 262.146C96.9884 261.384 97.5505 260.801 98.2713 260.383C98.9922 259.973 99.8122 259.767 100.745 259.767C101.922 259.767 102.894 260.046 103.668 260.609C104.441 261.172 104.957 261.967 105.228 263.007H103.059C102.881 262.523 102.603 262.146 102.213 261.874C101.823 261.602 101.333 261.47 100.745 261.47C99.918 261.47 99.2633 261.761 98.7739 262.344C98.2845 262.927 98.0399 263.742 98.0399 264.796C98.0399 265.849 98.2845 266.664 98.7739 267.254C99.2633 267.843 99.918 268.135 100.745 268.135C101.909 268.135 102.682 267.625 103.059 266.598H105.228C104.944 267.591 104.415 268.373 103.641 268.956C102.867 269.539 101.902 269.831 100.745 269.831C99.8122 269.831 98.9922 269.619 98.2713 269.201C97.5505 268.784 96.9884 268.194 96.585 267.433C96.1816 266.671 95.9766 265.789 95.9766 264.789C95.9766 263.789 96.1816 262.908 96.585 262.146Z" fill="white"/>
<path d="M107.344 258.264C107.1 258.018 106.974 257.707 106.974 257.343C106.974 256.978 107.1 256.674 107.344 256.422C107.589 256.177 107.9 256.051 108.264 256.051C108.627 256.051 108.918 256.177 109.163 256.422C109.408 256.667 109.533 256.978 109.533 257.343C109.533 257.707 109.408 258.012 109.163 258.264C108.918 258.515 108.614 258.635 108.264 258.635C107.913 258.635 107.596 258.509 107.344 258.264ZM109.256 259.926V269.672H107.245V259.926H109.256Z" fill="white"/>
<path d="M113.376 269.413C112.767 269.135 112.291 268.758 111.934 268.281C111.583 267.804 111.392 267.267 111.372 266.677H113.455C113.488 267.088 113.686 267.433 114.044 267.711C114.401 267.989 114.85 268.128 115.393 268.128C115.935 268.128 116.398 268.022 116.709 267.804C117.019 267.585 117.178 267.307 117.178 266.962C117.178 266.598 117.006 266.326 116.656 266.147C116.305 265.968 115.756 265.776 115.002 265.564C114.275 265.366 113.68 265.167 113.217 264.981C112.761 264.796 112.364 264.504 112.027 264.113C111.689 263.723 111.524 263.212 111.524 262.576C111.524 262.06 111.676 261.583 111.98 261.152C112.284 260.721 112.728 260.383 113.296 260.132C113.865 259.887 114.526 259.761 115.267 259.761C116.371 259.761 117.264 260.039 117.939 260.602C118.613 261.165 118.977 261.927 119.023 262.894H117.013C116.98 262.457 116.801 262.113 116.484 261.848C116.166 261.589 115.736 261.457 115.194 261.457C114.652 261.457 114.255 261.556 113.977 261.755C113.7 261.954 113.554 262.219 113.554 262.55C113.554 262.808 113.647 263.027 113.839 263.206C114.024 263.385 114.255 263.524 114.526 263.623C114.797 263.723 115.194 263.848 115.73 264.001C116.437 264.186 117.013 264.378 117.469 264.577C117.925 264.769 118.316 265.061 118.646 265.432C118.977 265.809 119.149 266.313 119.155 266.936C119.155 267.492 119.003 267.982 118.699 268.42C118.395 268.857 117.959 269.195 117.403 269.447C116.841 269.692 116.186 269.818 115.432 269.818C114.678 269.818 113.984 269.678 113.376 269.4V269.413Z" fill="white"/>
<path d="M121.437 258.264C121.192 258.018 121.067 257.707 121.067 257.343C121.067 256.978 121.192 256.674 121.437 256.422C121.682 256.177 121.992 256.051 122.356 256.051C122.72 256.051 123.011 256.177 123.256 256.422C123.5 256.667 123.626 256.978 123.626 257.343C123.626 257.707 123.5 258.012 123.256 258.264C123.011 258.515 122.707 258.635 122.356 258.635C122.006 258.635 121.688 258.509 121.437 258.264ZM123.342 259.926V269.672H121.331V259.926H123.342Z" fill="white"/>
<path d="M127.72 269.201C126.979 268.784 126.397 268.194 125.974 267.433C125.55 266.671 125.339 265.789 125.339 264.789C125.339 263.789 125.557 262.921 125.994 262.152C126.43 261.384 127.025 260.794 127.779 260.383C128.533 259.973 129.373 259.767 130.305 259.767C131.238 259.767 132.078 259.973 132.832 260.383C133.585 260.794 134.181 261.384 134.617 262.152C135.054 262.921 135.272 263.795 135.272 264.789C135.272 265.783 135.047 266.657 134.604 267.426C134.154 268.194 133.546 268.784 132.779 269.201C132.005 269.619 131.158 269.831 130.226 269.831C129.294 269.831 128.48 269.619 127.739 269.201H127.72ZM131.668 267.711C132.124 267.466 132.488 267.095 132.772 266.598C133.056 266.101 133.195 265.498 133.195 264.796C133.195 264.093 133.056 263.491 132.792 263C132.521 262.51 132.164 262.146 131.714 261.894C131.264 261.649 130.781 261.523 130.266 261.523C129.75 261.523 129.267 261.649 128.824 261.894C128.381 262.139 128.03 262.51 127.773 263C127.515 263.491 127.382 264.087 127.382 264.796C127.382 265.842 127.647 266.657 128.183 267.227C128.718 267.797 129.393 268.082 130.206 268.082C130.722 268.082 131.211 267.956 131.661 267.711H131.668Z" fill="white"/>
<path d="M144.219 260.244C144.828 260.562 145.297 261.033 145.641 261.662C145.985 262.285 146.15 263.04 146.15 263.928V269.678H144.153V264.233C144.153 263.358 143.935 262.689 143.498 262.225C143.062 261.761 142.467 261.53 141.713 261.53C140.959 261.53 140.364 261.761 139.921 262.225C139.478 262.689 139.259 263.358 139.259 264.233V269.678H137.249V259.933H139.259V261.046C139.59 260.648 140.007 260.33 140.523 260.105C141.032 259.88 141.581 259.767 142.156 259.767C142.923 259.767 143.604 259.926 144.213 260.244H144.219Z" fill="white"/>
<path d="M107.265 237.474C107.153 237.474 107.04 237.448 106.934 237.388L93.4303 229.65C93.2253 229.531 93.0996 229.312 93.0996 229.074V213.598C93.0996 213.366 93.2253 213.147 93.4237 213.028C93.6287 212.909 93.8733 212.909 94.0784 213.021L107.582 220.554C107.794 220.673 107.92 220.892 107.92 221.13V236.812C107.92 237.05 107.794 237.269 107.589 237.388C107.483 237.448 107.371 237.474 107.258 237.474H107.265ZM94.4222 228.69L106.604 235.672V221.528L94.4222 214.731V228.696V228.69Z" fill="white"/>
<path d="M107.265 237.474C107.153 237.474 107.034 237.448 106.934 237.382C106.729 237.262 106.604 237.044 106.604 236.812V221.13C106.604 220.892 106.736 220.667 106.941 220.554L120.445 213.021C120.65 212.909 120.901 212.909 121.1 213.028C121.305 213.147 121.424 213.366 121.424 213.598V229.074C121.424 229.312 121.298 229.531 121.093 229.65L107.589 237.388C107.49 237.448 107.371 237.474 107.258 237.474H107.265ZM107.926 221.521V235.666L120.108 228.683V214.717L107.926 221.515V221.521Z" fill="white"/>
<path d="M93.7609 214.26C93.5295 214.26 93.3113 214.141 93.1856 213.929C93.0071 213.611 93.1129 213.207 93.4303 213.028L106.934 205.29C107.139 205.171 107.391 205.171 107.589 205.29L121.093 213.028C121.41 213.207 121.523 213.618 121.338 213.929C121.159 214.247 120.749 214.36 120.438 214.174L107.258 206.622L94.0784 214.174C93.9726 214.234 93.8601 214.26 93.7477 214.26H93.7609Z" fill="white"/>
<path d="M87.0619 209.656C86.6982 209.656 86.4006 209.358 86.4006 208.993V201.746C86.4006 201.381 86.6982 201.083 87.0619 201.083H94.052C94.4158 201.083 94.7134 201.381 94.7134 201.746C94.7134 202.11 94.4158 202.408 94.052 202.408H87.7233V208.993C87.7233 209.358 87.4257 209.656 87.0619 209.656Z" fill="white"/>
<path d="M94.171 241.588H86.9362C86.5725 241.588 86.2749 241.29 86.2749 240.926V233.923C86.2749 233.559 86.5725 233.261 86.9362 233.261C87.2999 233.261 87.5975 233.559 87.5975 233.923V240.263H94.171C94.5347 240.263 94.8323 240.562 94.8323 240.926C94.8323 241.29 94.5347 241.588 94.171 241.588Z" fill="white"/>
<path d="M127.475 209.656C127.111 209.656 126.813 209.358 126.813 208.993V202.408H120.485C120.121 202.408 119.823 202.11 119.823 201.746C119.823 201.381 120.121 201.083 120.485 201.083H127.475C127.838 201.083 128.136 201.381 128.136 201.746V208.993C128.136 209.358 127.838 209.656 127.475 209.656Z" fill="white"/>
<path d="M127.594 241.588H120.359C119.995 241.588 119.698 241.29 119.698 240.926C119.698 240.562 119.995 240.263 120.359 240.263H126.933V233.923C126.933 233.559 127.23 233.261 127.594 233.261C127.958 233.261 128.255 233.559 128.255 233.923V240.926C128.255 241.29 127.958 241.588 127.594 241.588Z" fill="white"/>
<path d="M117.846 98.0504C118.421 97.0964 119.195 96.3478 120.18 95.8111C121.166 95.2745 122.244 95.0095 123.414 95.0095C124.757 95.0095 125.947 95.3341 126.992 95.9768C128.037 96.6194 128.797 97.5337 129.267 98.7063H126.787C126.463 98.057 126.007 97.5734 125.431 97.2554C124.849 96.9374 124.181 96.7784 123.421 96.7784C122.588 96.7784 121.847 96.9639 121.192 97.3283C120.538 97.6927 120.028 98.216 119.665 98.905C119.294 99.5874 119.109 100.382 119.109 101.29C119.109 102.198 119.294 102.993 119.665 103.675C120.035 104.357 120.544 104.887 121.192 105.258C121.847 105.629 122.588 105.815 123.421 105.815C124.181 105.815 124.849 105.656 125.431 105.338C126.013 105.02 126.463 104.536 126.787 103.887H129.267C128.797 105.066 128.037 105.974 126.992 106.61C125.947 107.246 124.757 107.564 123.414 107.564C122.231 107.564 121.153 107.299 120.174 106.762C119.195 106.226 118.421 105.477 117.846 104.523C117.271 103.569 116.986 102.489 116.986 101.283C116.986 100.078 117.271 99.0044 117.846 98.0438V98.0504Z" fill="white"/>
<path d="M133.446 106.988C132.686 106.57 132.091 105.981 131.654 105.219C131.218 104.457 131 103.576 131 102.575C131 101.575 131.224 100.707 131.667 99.9385C132.117 99.17 132.726 98.5803 133.499 98.1696C134.273 97.7588 135.133 97.5535 136.092 97.5535C137.051 97.5535 137.91 97.7588 138.684 98.1696C139.458 98.5803 140.066 99.17 140.516 99.9385C140.966 100.707 141.184 101.581 141.184 102.575C141.184 103.569 140.952 104.443 140.496 105.212C140.04 105.981 139.411 106.57 138.624 106.988C137.831 107.405 136.958 107.617 136.006 107.617C135.053 107.617 134.214 107.405 133.453 106.988H133.446ZM137.494 105.497C137.957 105.252 138.333 104.881 138.624 104.384C138.915 103.887 139.061 103.284 139.061 102.582C139.061 101.88 138.922 101.277 138.644 100.786C138.367 100.296 137.996 99.9319 137.54 99.6801C137.084 99.435 136.588 99.3091 136.052 99.3091C135.516 99.3091 135.027 99.435 134.577 99.6801C134.128 99.9252 133.764 100.296 133.499 100.786C133.235 101.277 133.102 101.873 133.102 102.582C133.102 103.629 133.38 104.443 133.929 105.013C134.478 105.583 135.172 105.868 136.006 105.868C136.535 105.868 137.037 105.742 137.5 105.497H137.494Z" fill="white"/>
<path d="M157.419 98.0305C158.041 98.3485 158.53 98.8188 158.887 99.4482C159.244 100.071 159.423 100.826 159.423 101.714V107.465H157.379V102.019C157.379 101.144 157.155 100.475 156.711 100.011C156.262 99.5476 155.653 99.3157 154.88 99.3157C154.106 99.3157 153.491 99.5476 153.041 100.011C152.585 100.475 152.36 101.144 152.36 102.019V107.465H150.317V102.019C150.317 101.144 150.092 100.475 149.649 100.011C149.199 99.5476 148.591 99.3157 147.817 99.3157C147.043 99.3157 146.428 99.5476 145.978 100.011C145.529 100.475 145.297 101.144 145.297 102.019V107.465H143.234V97.7191H145.297V98.8321C145.634 98.4346 146.064 98.1166 146.58 97.8913C147.103 97.6661 147.651 97.5535 148.247 97.5535C149.047 97.5535 149.754 97.7191 150.383 98.0503C151.011 98.3816 151.494 98.8586 151.831 99.4814C152.135 98.8917 152.605 98.4213 153.246 98.0768C153.888 97.7323 154.575 97.5535 155.309 97.5535C156.096 97.5535 156.797 97.7125 157.419 98.0305Z" fill="white"/>
<path d="M176.24 98.0305C176.862 98.3485 177.351 98.8188 177.708 99.4482C178.065 100.071 178.244 100.826 178.244 101.714V107.465H176.2V102.019C176.2 101.144 175.976 100.475 175.533 100.011C175.083 99.5476 174.474 99.3157 173.701 99.3157C172.927 99.3157 172.312 99.5476 171.862 100.011C171.406 100.475 171.181 101.144 171.181 102.019V107.465H169.138V102.019C169.138 101.144 168.913 100.475 168.47 100.011C168.02 99.5476 167.412 99.3157 166.638 99.3157C165.864 99.3157 165.249 99.5476 164.799 100.011C164.35 100.475 164.118 101.144 164.118 102.019V107.465H162.055V97.7191H164.118V98.8321C164.455 98.4346 164.885 98.1166 165.401 97.8913C165.924 97.6661 166.473 97.5535 167.068 97.5535C167.868 97.5535 168.575 97.7191 169.204 98.0503C169.832 98.3816 170.315 98.8586 170.652 99.4814C170.956 98.8917 171.426 98.4213 172.067 98.0768C172.709 97.7323 173.396 97.5535 174.131 97.5535C174.917 97.5535 175.618 97.7125 176.24 98.0305Z" fill="white"/>
<path d="M182.642 106.988C181.881 106.57 181.286 105.981 180.85 105.219C180.413 104.457 180.195 103.576 180.195 102.575C180.195 101.575 180.42 100.707 180.863 99.9385C181.312 99.17 181.921 98.5803 182.695 98.1696C183.468 97.7588 184.328 97.5535 185.287 97.5535C186.246 97.5535 187.106 97.7588 187.879 98.1696C188.653 98.5803 189.261 99.17 189.711 99.9385C190.161 100.707 190.379 101.581 190.379 102.575C190.379 103.569 190.148 104.443 189.691 105.212C189.235 105.981 188.607 106.57 187.82 106.988C187.026 107.405 186.153 107.617 185.201 107.617C184.249 107.617 183.409 107.405 182.648 106.988H182.642ZM186.689 105.497C187.152 105.252 187.529 104.881 187.82 104.384C188.111 103.887 188.256 103.284 188.256 102.582C188.256 101.88 188.117 101.277 187.84 100.786C187.562 100.296 187.192 99.9319 186.735 99.6801C186.279 99.435 185.783 99.3091 185.247 99.3091C184.712 99.3091 184.222 99.435 183.773 99.6801C183.323 99.9252 182.959 100.296 182.695 100.786C182.43 101.277 182.298 101.873 182.298 102.582C182.298 103.629 182.576 104.443 183.124 105.013C183.673 105.583 184.368 105.868 185.201 105.868C185.73 105.868 186.233 105.742 186.696 105.497H186.689Z" fill="white"/>
<path d="M192.356 99.9452C192.773 99.1899 193.342 98.6069 194.056 98.1829C194.777 97.7656 195.577 97.5536 196.456 97.5536C197.111 97.5536 197.753 97.6927 198.387 97.9709C199.022 98.2492 199.525 98.6136 199.902 99.0773V94.3735H201.985V107.465H199.902V105.994C199.565 106.464 199.095 106.855 198.5 107.16C197.905 107.465 197.217 107.617 196.443 107.617C195.577 107.617 194.777 107.405 194.062 106.974C193.342 106.544 192.779 105.941 192.363 105.172C191.946 104.397 191.741 103.523 191.741 102.549C191.741 101.575 191.946 100.7 192.363 99.9518L192.356 99.9452ZM199.472 100.826C199.188 100.329 198.817 99.9518 198.361 99.6934C197.905 99.4351 197.409 99.3026 196.873 99.3026C196.337 99.3026 195.848 99.4284 195.385 99.6802C194.929 99.9319 194.552 100.303 194.274 100.793C193.99 101.283 193.851 101.866 193.851 102.536C193.851 103.205 193.99 103.794 194.274 104.304C194.558 104.815 194.935 105.199 195.398 105.464C195.861 105.729 196.357 105.861 196.873 105.861C197.389 105.861 197.898 105.729 198.361 105.47C198.817 105.212 199.194 104.828 199.472 104.331C199.756 103.827 199.895 103.244 199.895 102.569C199.895 101.893 199.756 101.31 199.472 100.82V100.826Z" fill="white"/>
<path d="M204.809 96.0497C204.558 95.8045 204.425 95.4932 204.425 95.1288C204.425 94.7644 204.551 94.4597 204.809 94.2079C205.06 93.9628 205.378 93.8369 205.748 93.8369C206.118 93.8369 206.416 93.9628 206.674 94.2079C206.925 94.453 207.051 94.7644 207.051 95.1288C207.051 95.4932 206.925 95.7979 206.674 96.0497C206.422 96.2948 206.112 96.4207 205.748 96.4207C205.384 96.4207 205.06 96.2948 204.809 96.0497ZM206.766 97.7126V107.458H204.703V97.7126H206.766Z" fill="white"/>
<path d="M211.892 99.3556V104.748C211.892 105.113 211.978 105.378 212.156 105.537C212.335 105.696 212.632 105.775 213.056 105.775H214.325V107.458H212.698C211.766 107.458 211.058 107.246 210.562 106.822C210.066 106.398 209.822 105.709 209.822 104.755V99.3622H208.645V97.7192H209.822V95.2944H211.905V97.7192H214.332V99.3622H211.905L211.892 99.3556Z" fill="white"/>
<path d="M225.204 97.7126L219.08 112.043H216.944L218.974 107.299L215.046 97.7126H217.347L220.158 105.139L223.074 97.7126H225.21H225.204Z" fill="white"/>
<path d="M231.407 99.9451C231.823 99.1899 232.392 98.6068 233.106 98.1828C233.827 97.7655 234.621 97.5535 235.487 97.5535C236.274 97.5535 236.955 97.7058 237.544 98.004C238.132 98.3021 238.595 98.6797 238.946 99.1302V97.7125H241.029V107.458H238.946V106.007C238.595 106.464 238.119 106.848 237.517 107.16C236.916 107.465 236.228 107.617 235.454 107.617C234.594 107.617 233.814 107.405 233.1 106.974C232.386 106.544 231.823 105.941 231.407 105.172C230.99 104.397 230.785 103.523 230.785 102.549C230.785 101.575 230.99 100.7 231.407 99.9517V99.9451ZM238.523 100.826C238.238 100.329 237.868 99.9517 237.412 99.6933C236.955 99.435 236.459 99.3025 235.924 99.3025C235.388 99.3025 234.899 99.4284 234.436 99.6801C233.979 99.9319 233.602 100.303 233.325 100.793C233.04 101.283 232.901 101.866 232.901 102.535C232.901 103.205 233.04 103.794 233.325 104.304C233.609 104.815 233.986 105.199 234.449 105.464C234.912 105.729 235.408 105.861 235.924 105.861C236.439 105.861 236.949 105.729 237.412 105.47C237.868 105.212 238.245 104.828 238.523 104.331C238.807 103.827 238.946 103.244 238.946 102.569C238.946 101.893 238.807 101.31 238.523 100.82V100.826Z" fill="white"/>
<path d="M250.896 98.0305C251.518 98.3485 252.007 98.8188 252.357 99.4482C252.708 100.071 252.88 100.826 252.88 101.714V107.465H250.836V102.019C250.836 101.144 250.611 100.475 250.168 100.011C249.719 99.5476 249.11 99.3157 248.337 99.3157C247.563 99.3157 246.948 99.5476 246.498 100.011C246.048 100.475 245.817 101.144 245.817 102.019V107.465H243.754V97.7191H245.817V98.8321C246.154 98.4346 246.584 98.1166 247.113 97.8913C247.636 97.6661 248.198 97.5535 248.786 97.5535C249.573 97.5535 250.274 97.7125 250.896 98.0305Z" fill="white"/>
<path d="M255.439 99.9452C255.856 99.1899 256.424 98.6069 257.139 98.1829C257.859 97.7656 258.66 97.5536 259.539 97.5536C260.194 97.5536 260.835 97.6927 261.47 97.9709C262.105 98.2492 262.608 98.6136 262.985 99.0773V94.3735H265.068V107.465H262.985V105.994C262.647 106.464 262.178 106.855 261.583 107.16C260.987 107.465 260.3 107.617 259.526 107.617C258.66 107.617 257.859 107.405 257.145 106.974C256.424 106.544 255.862 105.941 255.446 105.172C255.029 104.397 254.824 103.523 254.824 102.549C254.824 101.575 255.029 100.7 255.446 99.9518L255.439 99.9452ZM262.555 100.826C262.27 100.329 261.9 99.9518 261.444 99.6934C260.987 99.4351 260.491 99.3026 259.956 99.3026C259.42 99.3026 258.931 99.4284 258.468 99.6802C258.012 99.9319 257.635 100.303 257.357 100.793C257.072 101.283 256.934 101.866 256.934 102.536C256.934 103.205 257.072 103.794 257.357 104.304C257.641 104.815 258.018 105.199 258.481 105.464C258.944 105.729 259.44 105.861 259.956 105.861C260.472 105.861 260.981 105.729 261.444 105.47C261.9 105.212 262.277 104.828 262.555 104.331C262.839 103.827 262.978 103.244 262.978 102.569C262.978 101.893 262.839 101.31 262.555 100.82V100.826Z" fill="white"/>
<path d="M164.118 116.388V128.684H162.055V123.305H156.129V128.684H154.066V116.388H156.129V121.662H162.055V116.388H164.118Z" fill="white"/>
<path d="M175.909 124.564H168.284C168.344 125.339 168.642 125.968 169.171 126.439C169.7 126.909 170.354 127.147 171.128 127.147C172.239 127.147 173.026 126.69 173.482 125.783H175.711C175.407 126.677 174.865 127.412 174.071 127.982C173.277 128.552 172.299 128.837 171.128 128.837C170.176 128.837 169.323 128.625 168.562 128.207C167.808 127.79 167.213 127.2 166.79 126.439C166.36 125.677 166.148 124.796 166.148 123.795C166.148 122.795 166.353 121.914 166.77 121.152C167.187 120.39 167.775 119.807 168.529 119.39C169.283 118.972 170.149 118.773 171.128 118.773C172.107 118.773 172.907 118.972 173.648 119.376C174.382 119.78 174.957 120.344 175.367 121.066C175.777 121.788 175.982 122.623 175.982 123.57C175.982 123.934 175.956 124.266 175.909 124.564ZM173.826 122.934C173.813 122.192 173.542 121.596 173.013 121.145C172.484 120.695 171.823 120.476 171.036 120.476C170.321 120.476 169.713 120.695 169.204 121.139C168.694 121.582 168.397 122.179 168.298 122.934H173.82H173.826Z" fill="white"/>
<path d="M177.946 121.165C178.363 120.41 178.932 119.827 179.646 119.403C180.367 118.986 181.167 118.774 182.046 118.774C182.701 118.774 183.343 118.913 183.978 119.191C184.612 119.469 185.115 119.834 185.492 120.297V115.594H187.575V128.685H185.492V127.214C185.155 127.684 184.685 128.075 184.09 128.38C183.495 128.685 182.807 128.837 182.033 128.837C181.167 128.837 180.367 128.625 179.653 128.194C178.932 127.764 178.37 127.161 177.953 126.392C177.536 125.617 177.331 124.743 177.331 123.769C177.331 122.795 177.536 121.92 177.953 121.172L177.946 121.165ZM185.069 122.053C184.784 121.556 184.414 121.178 183.958 120.92C183.501 120.662 183.005 120.529 182.47 120.529C181.934 120.529 181.445 120.655 180.982 120.907C180.525 121.159 180.148 121.53 179.871 122.02C179.586 122.51 179.448 123.093 179.448 123.762C179.448 124.431 179.586 125.021 179.871 125.531C180.155 126.041 180.532 126.425 180.995 126.69C181.458 126.955 181.954 127.088 182.47 127.088C182.986 127.088 183.495 126.955 183.958 126.697C184.414 126.439 184.791 126.054 185.069 125.558C185.353 125.054 185.492 124.471 185.492 123.795C185.492 123.12 185.353 122.537 185.069 122.046V122.053Z" fill="white"/>
<path d="M196.37 119.231C196.966 119.529 197.435 119.906 197.772 120.357V118.939H199.856V128.844C199.856 129.738 199.664 130.54 199.274 131.242C198.89 131.944 198.328 132.494 197.601 132.898C196.873 133.296 196 133.501 194.982 133.501C193.633 133.501 192.508 133.19 191.616 132.573C190.723 131.957 190.214 131.116 190.095 130.056H192.138C192.297 130.566 192.627 130.97 193.143 131.288C193.659 131.6 194.267 131.759 194.982 131.759C195.815 131.759 196.49 131.513 196.999 131.017C197.515 130.52 197.766 129.804 197.766 128.857V127.227C197.415 127.684 196.939 128.075 196.344 128.386C195.749 128.698 195.068 128.857 194.307 128.857C193.441 128.857 192.641 128.645 191.926 128.214C191.206 127.784 190.643 127.181 190.227 126.412C189.81 125.637 189.605 124.763 189.605 123.789C189.605 122.815 189.81 121.94 190.227 121.192C190.643 120.436 191.212 119.853 191.926 119.429C192.647 119.012 193.441 118.8 194.307 118.8C195.081 118.8 195.762 118.952 196.364 119.251L196.37 119.231ZM197.349 122.053C197.065 121.556 196.695 121.178 196.238 120.92C195.782 120.662 195.286 120.529 194.75 120.529C194.215 120.529 193.725 120.655 193.262 120.907C192.806 121.159 192.429 121.53 192.151 122.02C191.867 122.51 191.728 123.093 191.728 123.762C191.728 124.431 191.867 125.021 192.151 125.531C192.436 126.041 192.813 126.425 193.276 126.69C193.738 126.955 194.234 127.088 194.75 127.088C195.266 127.088 195.775 126.955 196.238 126.697C196.695 126.439 197.071 126.054 197.349 125.558C197.634 125.054 197.772 124.471 197.772 123.795C197.772 123.12 197.634 122.537 197.349 122.046V122.053Z" fill="white"/>
<path d="M202.679 117.276C202.428 117.031 202.296 116.72 202.296 116.355C202.296 115.991 202.422 115.686 202.679 115.434C202.931 115.189 203.248 115.063 203.619 115.063C203.989 115.063 204.286 115.189 204.544 115.434C204.796 115.68 204.921 115.991 204.921 116.355C204.921 116.72 204.796 117.024 204.544 117.276C204.293 117.521 203.982 117.647 203.619 117.647C203.255 117.647 202.931 117.521 202.679 117.276ZM204.637 118.939V128.685H202.574V118.939H204.637Z" fill="white"/>
<path d="M214.497 119.257C215.119 119.575 215.608 120.046 215.959 120.675C216.309 121.298 216.481 122.053 216.481 122.941V128.691H214.438V123.246C214.438 122.371 214.213 121.702 213.77 121.238C213.32 120.774 212.712 120.543 211.938 120.543C211.164 120.543 210.549 120.774 210.099 121.238C209.65 121.702 209.418 122.371 209.418 123.246V128.691H207.355V118.946H209.418V120.059C209.756 119.661 210.185 119.343 210.714 119.118C211.237 118.893 211.799 118.78 212.388 118.78C213.175 118.78 213.876 118.939 214.497 119.257Z" fill="white"/>
<path d="M225.184 119.231C225.779 119.529 226.249 119.906 226.586 120.357V118.939H228.669V128.844C228.669 129.738 228.477 130.54 228.087 131.242C227.704 131.944 227.141 132.494 226.414 132.898C225.687 133.296 224.814 133.501 223.795 133.501C222.446 133.501 221.322 133.19 220.429 132.573C219.536 131.957 219.027 131.116 218.908 130.056H220.952C221.11 130.566 221.441 130.97 221.957 131.288C222.473 131.6 223.081 131.759 223.795 131.759C224.628 131.759 225.303 131.513 225.812 131.017C226.328 130.52 226.579 129.804 226.579 128.857V127.227C226.229 127.684 225.753 128.075 225.157 128.386C224.562 128.698 223.881 128.857 223.121 128.857C222.254 128.857 221.454 128.645 220.74 128.214C220.019 127.784 219.457 127.181 219.04 126.412C218.624 125.637 218.419 124.763 218.419 123.789C218.419 122.815 218.624 121.94 219.04 121.192C219.457 120.436 220.026 119.853 220.74 119.429C221.461 119.012 222.254 118.8 223.121 118.8C223.894 118.8 224.576 118.952 225.177 119.251L225.184 119.231ZM226.163 122.053C225.878 121.556 225.508 121.178 225.052 120.92C224.595 120.662 224.099 120.529 223.564 120.529C223.028 120.529 222.539 120.655 222.076 120.907C221.619 121.159 221.243 121.53 220.965 122.02C220.68 122.51 220.542 123.093 220.542 123.762C220.542 124.431 220.68 125.021 220.965 125.531C221.249 126.041 221.626 126.425 222.089 126.69C222.552 126.955 223.048 127.088 223.564 127.088C224.08 127.088 224.589 126.955 225.052 126.697C225.508 126.439 225.885 126.054 226.163 125.558C226.447 125.054 226.586 124.471 226.586 123.795C226.586 123.12 226.447 122.537 226.163 122.046V122.053Z" fill="white"/>
<path d="M190.948 84.0187L176.267 66.0914L181.114 58.1479H200.861L205.556 65.9456L190.954 84.0187H190.948ZM177.88 65.9787L190.941 81.9186L203.936 65.833L200.107 59.473H181.848L177.88 65.9787Z" fill="white"/>
<path d="M204.743 65.376H177.073V66.701H204.743V65.376Z" fill="white"/>
<path d="M195.689 66.7008C195.471 66.7008 195.26 66.5881 195.141 66.4026L190.921 60.0293L186.907 66.3894C186.788 66.5815 186.583 66.6941 186.358 66.7008C186.147 66.7008 185.922 66.5948 185.803 66.4093L180.936 59.188C180.731 58.8832 180.81 58.4725 181.114 58.2671C181.418 58.0617 181.828 58.1412 182.033 58.446L186.332 64.8325L190.353 58.4658C190.472 58.2737 190.683 58.1611 190.902 58.1545H190.908C191.126 58.1545 191.338 58.2671 191.457 58.4526L195.689 64.8457L199.929 58.4526C200.134 58.1478 200.544 58.0683 200.848 58.2671C201.152 58.4725 201.231 58.8832 201.033 59.188L196.238 66.4159C196.113 66.6014 195.908 66.714 195.689 66.714V66.7008Z" fill="white"/>
<path d="M190.941 83.6344C190.643 83.6344 190.386 83.4356 190.306 83.1441L185.703 66.2105C185.604 65.8594 185.816 65.495 186.166 65.3956C186.517 65.2963 186.881 65.5083 186.98 65.8594L190.954 80.4808L195.054 65.8528C195.154 65.5016 195.517 65.2963 195.868 65.3956C196.218 65.495 196.423 65.8594 196.324 66.2105L191.583 83.1441C191.503 83.429 191.245 83.6277 190.948 83.6277L190.941 83.6344Z" fill="white"/>
<path d="M170.064 50.8271C169.978 50.8271 169.898 50.8139 169.812 50.7741C169.475 50.635 169.316 50.2507 169.455 49.9129C173.185 40.8167 181.729 34.9734 191.193 35.0728C200.226 35.1523 208.532 40.9558 212.355 49.8466C212.5 50.1845 212.341 50.5754 212.011 50.7145C211.674 50.8602 211.283 50.7012 211.145 50.37C207.527 41.9562 199.691 36.4707 191.179 36.3978C191.113 36.3978 191.047 36.3978 190.988 36.3978C182.133 36.3978 174.177 41.8833 170.679 50.4164C170.573 50.6747 170.328 50.8271 170.064 50.8271Z" fill="white"/>
<path d="M170.063 50.8271C169.892 50.8271 169.72 50.7609 169.587 50.6284C169.329 50.3634 169.336 49.946 169.601 49.6942C170.917 48.4024 173.833 47.5742 177.04 47.5742H177.106C180.261 47.5875 183.065 48.3759 184.407 49.628C184.672 49.8797 184.692 50.2971 184.44 50.5621C184.189 50.8271 183.773 50.847 183.508 50.5952C182.43 49.5882 179.851 48.9059 177.1 48.8926H177.04C174.203 48.8926 171.591 49.5882 170.526 50.635C170.401 50.7609 170.229 50.8205 170.063 50.8205V50.8271Z" fill="white"/>
<path d="M183.958 50.8271C183.786 50.8271 183.614 50.7609 183.482 50.6284C183.224 50.3634 183.23 49.946 183.495 49.6942C184.811 48.4024 187.727 47.5742 190.935 47.5742H191.001C194.155 47.5875 196.959 48.3759 198.302 49.628C198.566 49.8797 198.586 50.2971 198.335 50.5621C198.083 50.8271 197.667 50.847 197.402 50.5952C196.324 49.5882 193.752 48.9059 190.994 48.8926C188.124 48.8926 185.492 49.5816 184.421 50.635C184.295 50.7609 184.123 50.8205 183.958 50.8205V50.8271Z" fill="white"/>
<path d="M197.858 50.8271C197.686 50.8271 197.515 50.7609 197.382 50.6284C197.124 50.3634 197.131 49.946 197.395 49.6942C198.711 48.4024 201.628 47.5742 204.835 47.5742H204.901C208.056 47.5875 210.86 48.3759 212.202 49.628C212.467 49.8797 212.487 50.2971 212.235 50.5621C211.984 50.8271 211.567 50.847 211.303 50.5952C210.225 49.5882 207.652 48.9059 204.895 48.8926H204.835C201.998 48.8926 199.386 49.5882 198.321 50.635C198.196 50.7609 198.024 50.8205 197.858 50.8205V50.8271Z" fill="white"/>
<path d="M191.186 36.3979C190.822 36.3979 190.525 36.0997 190.525 35.7354V32.7939C190.525 32.4295 190.822 32.1313 191.186 32.1313C191.55 32.1313 191.847 32.4295 191.847 32.7939V35.7354C191.847 36.0997 191.55 36.3979 191.186 36.3979Z" fill="white"/>
<path d="M191.186 55.7495C190.822 55.7495 190.525 55.4514 190.525 55.087V48.2367C190.525 47.8723 190.822 47.5742 191.186 47.5742C191.55 47.5742 191.847 47.8723 191.847 48.2367V55.087C191.847 55.4514 191.55 55.7495 191.186 55.7495Z" fill="white"/>
<path d="M199.036 48.3163C198.751 48.3163 198.487 48.1308 198.401 47.8459C197.587 45.0965 196.324 42.5525 194.651 40.2801C193.454 38.6504 191.556 36.9543 190.743 36.2322C190.472 35.9871 190.445 35.5697 190.69 35.2981C190.935 35.0265 191.351 35 191.622 35.2451C192.932 36.4177 194.578 37.9547 195.709 39.4984C197.475 41.8966 198.804 44.5798 199.664 47.4683C199.77 47.8194 199.571 48.1904 199.221 48.2898C199.155 48.3097 199.095 48.3163 199.029 48.3163H199.036Z" fill="white"/>
<path d="M183.058 48.3163C182.999 48.3163 182.933 48.3097 182.867 48.2898C182.516 48.1838 182.318 47.8194 182.423 47.4683C183.283 44.5731 184.612 41.89 186.378 39.4984C187.516 37.9547 189.162 36.4177 190.465 35.2451C190.736 35 191.153 35.0265 191.398 35.2981C191.642 35.5697 191.616 35.9871 191.345 36.2322C190.538 36.9543 188.64 38.6504 187.436 40.2801C185.763 42.5525 184.5 45.0965 183.687 47.8459C183.601 48.1308 183.336 48.3163 183.052 48.3163H183.058Z" fill="white"/>
<path d="M177.933 59.5457C177.761 59.5457 177.596 59.4795 177.464 59.3536L175.354 57.2402C175.096 56.9818 175.096 56.5645 175.354 56.3061C175.612 56.0477 176.029 56.0477 176.287 56.3061L178.396 58.4195C178.654 58.6779 178.654 59.0952 178.396 59.3536C178.264 59.4861 178.099 59.5457 177.927 59.5457H177.933Z" fill="white"/>
<path d="M204.445 59.5457C204.273 59.5457 204.108 59.4795 203.976 59.3536C203.718 59.0952 203.718 58.6779 203.976 58.4195L206.085 56.3061C206.343 56.0477 206.76 56.0477 207.018 56.3061C207.276 56.5645 207.276 56.9818 207.018 57.2402L204.908 59.3536C204.776 59.4861 204.611 59.5457 204.439 59.5457H204.445Z" fill="white"/>
<path d="M193.6 205.548C196.836 205.548 199.459 202.92 199.459 199.678C199.459 196.437 196.836 193.809 193.6 193.809C190.364 193.809 187.74 196.437 187.74 199.678C187.74 202.92 190.364 205.548 193.6 205.548Z" fill="white"/>
<path d="M194.261 205.548H192.938V393.64H194.261V205.548Z" fill="white"/>
<path d="M310.765 392.984H71.1904V394.309H310.765V392.984Z" fill="white"/>
<defs>
<linearGradient id="paint0_linear_32_103" x1="368.649" y1="298.895" x2="182.66" y2="191.707" gradientUnits="userSpaceOnUse">
<stop stop-color="#8D46D1" stop-opacity="0"/>
<stop offset="1" stop-color="#8D46D1"/>
</linearGradient>
<linearGradient id="paint1_linear_32_103" x1="107.265" y1="344.336" x2="107.265" y2="129.42" gradientUnits="userSpaceOnUse">
<stop stop-color="#8D46D1" stop-opacity="0"/>
<stop offset="1" stop-color="#8D46D1"/>
</linearGradient>
<linearGradient id="paint2_linear_32_103" x1="219.143" y1="3.64561" x2="163.422" y2="211.227" gradientUnits="userSpaceOnUse">
<stop stop-color="#8D46D1" stop-opacity="0"/>
<stop offset="1" stop-color="#8D46D1"/>
</linearGradient>
</defs>
</svg>
